<?xml version='1.0' encoding='utf-8'?>
<svg xmlns="http://www.w3.org/2000/svg" version="1.1" id="svg2" width="2003.7068" height="2003.7068" viewBox="0 0 2003.7068 2003.7068"> <metadata id="metadata8"> </metadata> <defs id="defs6"/> <g id="layer5"> <rect style="opacity:1;vector-effect:none;fill:#35b9ab;fill-opacity:1;stroke:none;stroke-width:10;stroke-linecap:round;stroke-linejoin:round;stroke-miterlimit:4;stroke-dasharray:none;stroke-dashoffset:0;stroke-opacity:1;paint-order:fill markers stroke" id="rect370" width="2003.7068" height="2003.7068" x="0" y="0"/> <ellipse style="opacity:1;vector-effect:none;fill:#2d9d91;fill-opacity:1;stroke:none;stroke-width:10;stroke-linecap:round;stroke-linejoin:round;stroke-miterlimit:4;stroke-dasharray:none;stroke-dashoffset:0;stroke-opacity:1;paint-order:fill markers stroke" id="path372" cx="938.83691" cy="1819.8616" rx="605.46405" ry="75.98941"/> <ellipse ry="55.189686" rx="432.133" cy="1819.8616" cx="938.83691" id="ellipse374" style="opacity:1;vector-effect:none;fill:#258278;fill-opacity:1;stroke:none;stroke-width:10;stroke-linecap:round;stroke-linejoin:round;stroke-miterlimit:4;stroke-dasharray:none;stroke-dashoffset:0;stroke-opacity:1;paint-order:fill markers stroke"/> </g> <g id="layer4" style="display:inline" transform="translate(298.12943,465.3786)"> <path style="opacity:1;vector-effect:none;fill:#7c6400;fill-opacity:1;stroke:#000000;stroke-width:10;stroke-linecap:round;stroke-linejoin:round;stroke-miterlimit:4;stroke-dasharray:none;stroke-dashoffset:0;stroke-opacity:1;paint-order:fill markers stroke" d="m 567.46928,1263.6303 c 0,0 -18.38453,15.9333 -17.15889,34.3178 1.22563,18.3845 20.8358,40.446 51.47669,39.2203 30.64089,-1.2256 99.27648,33.0922 150.75318,23.2871 51.4767,-9.8051 55.1536,-39.2203 15.93326,-67.4099 -39.22034,-28.1897 -58.83051,-41.6717 -58.83051,-41.6717 z" id="path207"/> <path style="opacity:1;vector-effect:none;fill:#7c6400;fill-opacity:1;stroke:#000000;stroke-width:10;stroke-linecap:round;stroke-linejoin:round;stroke-miterlimit:4;stroke-dasharray:none;stroke-dashoffset:0;stroke-opacity:1;paint-order:fill markers stroke" d="m 577.27437,1142.2924 c 0,0 -23.28708,71.0868 -22.06144,88.2457 1.22563,17.1589 19.61017,60.0562 42.89724,68.6356 23.28708,8.5795 49.02543,-9.8051 68.6356,-18.3845 19.61017,-8.5795 50.25106,-11.0307 60.05614,-24.5127 9.80509,-13.482 3.67691,-99.2765 -11.03072,-112.7585 -14.70763,-13.482 -138.49682,-1.2256 -138.49682,-1.2256 z" id="path205"/> <path style="opacity:1;vector-effect:none;fill:#7c6400;fill-opacity:1;stroke:#000000;stroke-width:10;stroke-linecap:round;stroke-linejoin:round;stroke-miterlimit:4;stroke-dasharray:none;stroke-dashoffset:0;stroke-opacity:1;paint-order:fill markers stroke" d="m 364.01377,1283.2405 c 0,0 -36.76906,29.4152 -40.44597,56.3792 -3.67691,26.964 23.28708,45.3485 53.92797,49.0254 30.64089,3.6769 96.82521,2.4513 118.88665,-7.3538 22.06144,-9.8051 25.73835,-23.2871 22.06144,-42.8972 -3.67691,-19.6102 -12.25636,-42.8973 -25.73835,-55.1536 -13.48199,-12.2564 -101.72775,-20.8358 -128.69174,0 z" id="path203"/> <path style="opacity:1;vector-effect:none;fill:#7c6400;fill-opacity:1;stroke:#000000;stroke-width:10;stroke-linecap:round;stroke-linejoin:round;stroke-miterlimit:4;stroke-dasharray:none;stroke-dashoffset:0;stroke-opacity:1;paint-order:fill markers stroke" d="m 390.97776,1152.0975 c 0,0 -41.67161,63.733 -46.57416,115.2097 -6.12817,26.964 4.90255,34.3178 23.28708,19.6102 18.38453,-14.7077 67.40996,-15.9333 95.59958,-6.1282 28.18962,9.8051 24.51271,30.6409 46.57415,22.0614 22.06144,-8.5794 4.90254,-109.0815 -1.22563,-127.4661 -6.12818,-18.3845 -87.02013,-44.1228 -117.66102,-23.287 z" id="path201"/> <path style="opacity:1;vector-effect:none;fill:#7c6400;fill-opacity:1;stroke:#000000;stroke-width:10;stroke-linecap:round;stroke-linejoin:round;stroke-miterlimit:4;stroke-dasharray:none;stroke-dashoffset:0;stroke-opacity:1;paint-order:fill markers stroke" d="m 566.24365,1031.9852 c -2.45127,4.9025 -2.45127,94.3739 23.28708,101.7278 25.73835,7.3538 98.05085,-1.2257 101.72775,-17.1589 3.67691,-15.9333 -20.8358,-113.9842 -20.8358,-113.9842 z" id="path195"/> <path style="opacity:1;vector-effect:none;fill:#7c6400;fill-opacity:1;stroke:#000000;stroke-width:10;stroke-linecap:round;stroke-linejoin:round;stroke-miterlimit:4;stroke-dasharray:none;stroke-dashoffset:0;stroke-opacity:1;paint-order:fill markers stroke" d="m 402.00848,1058.9492 c 0,0 -14.70763,66.1843 -2.45127,75.9894 12.25635,9.805 84.56885,12.2563 107.85593,6.1281 23.28708,-6.1281 31.86653,-100.5021 31.86653,-100.5021 z" id="path193"/> <path style="opacity:1;vector-effect:none;fill:#d2d5d8;fill-opacity:1;stroke:#000000;stroke-width:10;stroke-linecap:round;stroke-linejoin:round;stroke-miterlimit:4;stroke-dasharray:none;stroke-dashoffset:0;stroke-opacity:1;paint-order:fill markers stroke" d="M 909.98801,487.94215 886.43962,239.0634 c 0,0 17.59259,27.2449 39.14818,18.34845 24.17925,-9.97929 24.58336,-82.77482 -8.66655,-90.13214 -21.80732,-4.82538 -38.13283,12.13317 -38.13283,31.19959 -10.39986,-81.46559 -79.73228,-526.92639 -79.73228,-526.92639 0,0 234.04786,69.05617 306.84696,251.053767 72.799,181.997603 67.5481,535.869193 67.5481,535.869193 0,0 -50.266,32.9329 -64.1325,34.66621 -13.8665,1.73331 -116.13179,13.86649 -123.06503,12.13318 -6.93324,-1.73332 -64.13249,-1.73332 -64.13249,-1.73332 z" id="path191"/> <path style="opacity:1;vector-effect:none;fill:#7c6400;fill-opacity:1;stroke:#000000;stroke-width:10;stroke-linecap:round;stroke-linejoin:round;stroke-miterlimit:4;stroke-dasharray:none;stroke-dashoffset:0;stroke-opacity:1;paint-order:fill markers stroke" d="m 556.43856,964.57521 -17.15889,91.92269 c 0,0 -57.60488,29.4152 -106.6303,29.4153 -49.02543,-14.7076 -66.18432,-23.2871 -66.18432,-23.2871 0,0 20.8358,-73.53818 62.50741,-106.63034 73.53814,9.80509 127.4661,8.57945 127.4661,8.57945 z" id="path187"/> <path style="opacity:1;vector-effect:none;fill:#7c6400;fill-opacity:1;stroke:#000000;stroke-width:10;stroke-linecap:round;stroke-linejoin:round;stroke-miterlimit:4;stroke-dasharray:none;stroke-dashoffset:0;stroke-opacity:1;paint-order:fill markers stroke" d="m 654.48941,946.19068 c 0,0 57.60488,49.02542 72.3125,83.34322 -50.25106,8.5794 -80.89195,7.3538 -80.89195,0 0,-7.3538 -22.06144,-73.53814 -22.06144,-73.53814 z" id="path185"/> <path style="opacity:1;vector-effect:none;fill:#7c6400;fill-opacity:1;stroke:#000000;stroke-width:10;stroke-linecap:round;stroke-linejoin:round;stroke-miterlimit:4;stroke-dasharray:none;stroke-dashoffset:0;stroke-opacity:1;paint-order:fill markers stroke" d="m 629.9767,957.2214 c 0,0 39.22034,68.6356 40.44597,100.5021 -30.64089,34.3178 -55.1536,47.7998 -55.1536,47.7998 0,0 -72.3125,-8.5794 -83.34322,-29.4152 -1.22563,-64.9587 7.35382,-105.40471 7.35382,-105.40471 0,0 68.63559,-18.38454 90.69703,-13.48199 z" id="path183"/> <path style="opacity:1;vector-effect:none;fill:#7c6400;fill-opacity:1;stroke:#000000;stroke-width:10;stroke-linecap:round;stroke-linejoin:round;stroke-miterlimit:4;stroke-dasharray:none;stroke-dashoffset:0;stroke-opacity:1;paint-order:fill markers stroke" d="m 648.36123,922.9036 c 0,0 8.57945,17.1589 1.22564,30.64089 -7.35381,13.48199 -107.85593,25.73835 -163.00954,20.8358 -55.1536,-4.90254 -31.86652,-40.44597 -31.86652,-40.44597 0,0 73.53813,18.38453 193.65042,-11.03072 z" id="path181"/> <path style="opacity:1;vector-effect:none;fill:#7c6400;fill-opacity:1;stroke:#000000;stroke-width:10;stroke-linecap:round;stroke-linejoin:round;stroke-miterlimit:4;stroke-dasharray:none;stroke-dashoffset:0;stroke-opacity:1;paint-order:fill markers stroke" d="m 751.46623,585.39959 c 0,0 48.55425,-3.15041 90.07378,9.25349 41.51953,12.40388 23.98357,43.48991 8.21475,69.3874 -15.76879,25.8975 1.30424,65.87569 -16.09625,76.16242 -17.40047,10.28674 -125.04409,37.31911 -199.46197,19.50087 -74.41786,-17.81822 56.57124,-169.49952 117.26969,-174.30418 z" id="path158"/> <path style="opacity:1;vector-effect:none;fill:#7c6400;fill-opacity:1;stroke:#000000;stroke-width:10;stroke-linecap:round;stroke-linejoin:round;stroke-miterlimit:4;stroke-dasharray:none;stroke-dashoffset:0;stroke-opacity:1;paint-order:fill markers stroke" d="m 854.41881,581.69024 c 0,0 -28.68068,0.55399 -42.08814,26.21003 -13.40744,25.65604 -17.54213,94.02704 4.38804,113.28759 21.93015,19.26054 44.10584,17.06198 89.77192,14.50853 104.44227,-5.83997 104.40447,-25.00672 103.63407,-61.45336 -0.7187,-34.0014 -3.6355,-76.94639 -32.88882,-100.66596 -29.25333,-23.7196 -69.04336,-6.25566 -122.81707,8.11317 z" id="path175"/> <path style="fill:#7c6400;fill-opacity:1;stroke:#000000;stroke-width:10;stroke-linecap:round;stroke-linejoin:round;stroke-miterlimit:4;stroke-dasharray:none;stroke-dashoffset:0;paint-order:fill markers stroke" d="m 660.39129,616.20713 c 0,0 13.86649,-27.73297 48.5327,-32.9329 34.66621,-5.19993 72.79904,-8.66655 88.39883,-20.79972 15.5998,-12.13318 19.06642,45.06607 13.86648,76.26566 -5.19993,31.19959 -12.13317,86.66552 -79.73228,93.59876 -67.59911,6.93324 -105.73194,-62.39917 -71.06573,-116.1318 z" id="path979"/> <path style="fill:#7c6400;fill-opacity:1;stroke:#000000;stroke-width:10;stroke-linecap:round;stroke-linejoin:round;stroke-miterlimit:4;stroke-dasharray:none;stroke-dashoffset:0;paint-order:fill markers stroke" d="m 373.81886,572.37182 c 0,0 -22.06144,23.28708 -26.96399,45.34852 -41.67161,30.64089 -55.1536,55.1536 -55.1536,68.63559 0,13.48199 44.12288,251.2553 51.4767,254.93221 7.35381,3.6769 241.45021,2.45127 300.28072,-19.61017 20.8358,-18.38454 20.8358,-55.15361 20.8358,-55.15361 0,0 35.54343,-11.03072 35.54343,-106.63029 22.06145,-17.1589 19.61017,-60.05615 7.35382,-73.53814 C 694.93538,672.87394 373.81886,572.37182 373.81886,572.37182 Z" id="path935"/> <path style="display:inline;fill:#ccae00;fill-opacity:1;stroke:none;stroke-width:10;stroke-linecap:round;stroke-linejoin:round;stroke-miterlimit:4;stroke-dasharray:none;stroke-dashoffset:0;paint-order:fill markers stroke" d="m 433.875,702.28919 c 0,0 63.73305,4.90255 98.05085,17.1589 34.31779,12.25636 79.66631,34.3178 79.66631,34.3178 0,0 6.12818,-17.1589 15.93326,-24.51271 14.70763,19.61017 17.1589,24.51271 17.1589,24.51271 0,0 31.86653,-19.61017 56.37924,-30.64089 0,23.28708 -19.61017,39.22034 -19.61017,39.22034 11.03072,-2.45127 2.45127,47.79979 0,60.05614 -2.45127,12.25636 -22.35594,45.78954 -29.41525,41.67161 l -14.70763,-8.57945 c 0,0 -6.12818,28.18962 -13.48199,40.44598 -8.57945,-19.61017 -11.03072,-42.89725 -11.03072,-42.89725 0,0 -7.67466,10.67547 -14.09481,14.09481 -19.52528,10.39909 -36.15625,11.64354 -65.57151,7.96663 C 503.73623,871.42691 433.875,702.28919 433.875,702.28919 Z" id="path937"/> <path style="fill:#ffef2e;fill-opacity:1;stroke:none;stroke-width:10;stroke-linecap:round;stroke-linejoin:round;stroke-miterlimit:4;stroke-dasharray:none;stroke-dashoffset:0;paint-order:fill markers stroke" d="m 471.25689,715.15837 c 0,0 96.82521,12.25635 136.04555,45.96133 4.28972,6.12818 1.22563,18.38454 1.22563,18.38454 0,0 -102.95339,-52.70233 -137.27118,-64.34587 z" id="path939"/> <path style="fill:#ffef2e;fill-opacity:1;stroke:none;stroke-width:10;stroke-linecap:round;stroke-linejoin:round;stroke-miterlimit:4;stroke-dasharray:none;stroke-dashoffset:0;paint-order:fill markers stroke" d="m 626.29979,737.21981 c 0,0 -7.35381,7.35381 -4.90254,12.86917 2.45127,5.51536 4.28972,118.27384 3.06409,136.04555 13.48199,-48.4126 26.96398,-124.40201 1.83845,-148.91472 z" id="path941"/> <path style="fill:#ffef2e;fill-opacity:1;stroke:none;stroke-width:10;stroke-linecap:round;stroke-linejoin:round;stroke-miterlimit:4;stroke-dasharray:none;stroke-dashoffset:0;paint-order:fill markers stroke" d="m 693.70975,732.93008 c 0,0 -43.51007,23.28708 -45.96134,27.5768 -2.45127,4.28973 -1.22563,15.93327 -1.22563,15.93327 0,0 37.38188,-22.67426 47.18697,-43.51007 z" id="path943"/> <path style="fill:#ffef2e;fill-opacity:1;stroke:none;stroke-width:10;stroke-linecap:round;stroke-linejoin:round;stroke-miterlimit:4;stroke-dasharray:none;stroke-dashoffset:0;paint-order:fill markers stroke" d="m 680.22776,769.69915 c 0,0 -30.02808,13.48199 -31.86653,17.77172 -1.83845,4.28972 -1.22564,13.48199 -1.22564,13.48199 0,0 31.86653,-10.4179 33.09217,-31.25371 z" id="path945"/> <path style="fill:#ffef2e;fill-opacity:1;stroke:none;stroke-width:10;stroke-linecap:round;stroke-linejoin:round;stroke-miterlimit:4;stroke-dasharray:none;stroke-dashoffset:0;paint-order:fill markers stroke" d="m 609.14089,789.92214 c 0,0 2.45128,9.19227 0.61282,12.86918 C 585.241,799.11441 535.60276,788.6965 535.60276,788.6965 l -30.02808,-42.28442 c 0,0 70.47405,22.06144 103.56621,43.51006 z" id="path947"/> <path style="fill:#ffef2e;fill-opacity:1;stroke:none;stroke-width:10;stroke-linecap:round;stroke-linejoin:round;stroke-miterlimit:4;stroke-dasharray:none;stroke-dashoffset:0;paint-order:fill markers stroke" d="m 677.77648,800.95286 c 0,0 -28.18961,6.741 -30.64089,11.03072 -2.45127,4.28972 -3.6769,14.09481 -3.6769,14.09481 0,0 29.41525,-3.06409 34.31779,-25.12553 z" id="path949"/> <path style="fill:#ffef2e;fill-opacity:1;stroke:none;stroke-width:10;stroke-linecap:round;stroke-linejoin:round;stroke-miterlimit:4;stroke-dasharray:none;stroke-dashoffset:0;paint-order:fill markers stroke" d="m 672.87394,829.7553 c 0,0 -27.5768,0.61281 -29.41525,4.90254 -1.83846,4.28972 -4.90254,11.03072 -1.83846,11.64354 3.06409,0.61281 23.28708,3.6769 31.25371,-16.54608 z" id="path951"/> <path style="fill:#ffef2e;fill-opacity:1;stroke:none;stroke-width:10;stroke-linecap:round;stroke-linejoin:round;stroke-miterlimit:4;stroke-dasharray:none;stroke-dashoffset:0;paint-order:fill markers stroke" d="m 610.36653,814.43485 c 0,0 2.45127,10.4179 -0.61282,14.70763 -19.61017,1.83845 -58.21769,0 -58.21769,0 0,0 -4.90254,-15.93326 -8.57945,-22.06144 33.70498,0 67.40996,7.35381 67.40996,7.35381 z" id="path953"/> <path style="fill:#ffef2e;fill-opacity:1;stroke:none;stroke-width:10;stroke-linecap:round;stroke-linejoin:round;stroke-miterlimit:4;stroke-dasharray:none;stroke-dashoffset:0;paint-order:fill markers stroke" d="m 611.59216,837.10911 c 0,0 1.22564,9.19227 -1.22563,12.25636 -2.45127,3.06408 -46.57416,9.80508 -52.08952,9.80508 -2.45127,-14.09481 -3.6769,-19.61017 -3.6769,-19.61017 0,0 50.86387,-4.28972 56.99205,-2.45127 z" id="path955"/> <path style="fill:#ccae00;fill-opacity:1;stroke:none;stroke-width:10;stroke-linecap:round;stroke-linejoin:round;stroke-miterlimit:4;stroke-dasharray:none;stroke-dashoffset:0;paint-order:fill markers stroke" d="m 544.1822,882.45763 c 0,0 45.96134,9.19226 64.34587,-14.70763 6.741,28.18962 17.1589,36.76907 17.1589,36.76907 0,0 12.86918,-23.8999 14.70763,-37.99471 13.48199,4.90255 12.86917,12.86918 11.03072,21.44863 -1.83845,8.57945 -9.19227,22.06144 -15.32045,25.73834 -6.12817,3.67691 -71.69968,15.93327 -94.98675,10.41791 0.61281,-25.12553 3.06408,-41.67161 3.06408,-41.67161 z" id="path957"/> <path style="fill:#ffef2e;fill-opacity:1;stroke:none;stroke-width:10;stroke-linecap:round;stroke-linejoin:round;stroke-miterlimit:4;stroke-dasharray:none;stroke-dashoffset:0;paint-order:fill markers stroke" d="m 561.3411,892.26271 c 0,0 17.77172,-0.61282 27.5768,-4.90254 9.80509,-4.28973 14.09481,-7.35381 14.70763,-0.61282 0.61282,6.741 -5.51536,12.25636 -15.93326,15.32045 -10.4179,3.06409 -34.93062,0.61281 -26.35117,-9.80509 z" id="path959"/> <path style="fill:#ffffff;fill-opacity:1;stroke:none;stroke-width:10;stroke-linecap:round;stroke-linejoin:round;stroke-miterlimit:4;stroke-dasharray:none;stroke-dashoffset:0;paint-order:fill markers stroke" d="m 629.36388,752.54025 c 0,0 -4.90254,6.741 -3.67691,12.25636 1.22564,5.51536 3.67691,53.92797 3.06409,71.08686 9.19227,-31.86652 5.51536,-73.53813 0.61282,-83.34322 z" id="path961"/> <path style="fill:#ffffff;fill-opacity:1;stroke:none;stroke-width:10;stroke-linecap:round;stroke-linejoin:round;stroke-miterlimit:4;stroke-dasharray:none;stroke-dashoffset:0;paint-order:fill markers stroke" d="m 551.62606,739.7055 c 0,0 51.99932,16.89978 54.38262,27.94963 -17.54977,-5.63326 -54.38262,-27.94963 -54.38262,-27.94963 z" id="path963"/> <path style="fill:#ffffff;fill-opacity:1;stroke:none;stroke-width:10;stroke-linecap:round;stroke-linejoin:round;stroke-miterlimit:4;stroke-dasharray:none;stroke-dashoffset:0;paint-order:fill markers stroke" d="m 546.42613,766.13849 c 0,0 56.98258,19.49974 59.79921,28.38296 -17.3331,-0.43333 -59.79921,-28.38296 -59.79921,-28.38296 z" id="path965"/> <path style="fill:#ffffff;fill-opacity:1;stroke:none;stroke-width:10;stroke-linecap:round;stroke-linejoin:round;stroke-miterlimit:4;stroke-dasharray:none;stroke-dashoffset:0;paint-order:fill markers stroke" d="m 560.50928,811.85455 c 0,0 45.93273,2.3833 47.66604,8.44989 1.73331,6.06659 -47.66604,-8.44989 -47.66604,-8.44989 z" id="path967"/> <path style="fill:#ffffff;fill-opacity:1;stroke:none;stroke-width:10;stroke-linecap:round;stroke-linejoin:round;stroke-miterlimit:4;stroke-dasharray:none;stroke-dashoffset:0;paint-order:fill markers stroke" d="m 566.3592,842.83748 c 0,0 37.26618,-6.28326 40.7328,-1.94998 3.46662,4.33328 -40.7328,1.94998 -40.7328,1.94998 z" id="path969"/> <path style="fill:#ffffff;fill-opacity:1;stroke:none;stroke-width:10;stroke-linecap:round;stroke-linejoin:round;stroke-miterlimit:4;stroke-dasharray:none;stroke-dashoffset:0;paint-order:fill markers stroke" d="m 681.62435,743.17212 c -0.86666,0.43333 -30.5496,12.99983 -31.19959,19.93307 -0.64999,6.93324 31.19959,-19.93307 31.19959,-19.93307 z" id="path971"/> <path style="fill:#ffffff;fill-opacity:1;stroke:none;stroke-width:10;stroke-linecap:round;stroke-linejoin:round;stroke-miterlimit:4;stroke-dasharray:none;stroke-dashoffset:0;paint-order:fill markers stroke" d="m 674.04111,775.23837 c -0.86665,0.21666 -23.83302,10.61652 -23.39969,14.9498 0.43333,4.33328 23.39969,-14.9498 23.39969,-14.9498 z" id="path973"/> <path style="fill:#ffffff;fill-opacity:1;stroke:none;stroke-width:10;stroke-linecap:round;stroke-linejoin:round;stroke-miterlimit:4;stroke-dasharray:none;stroke-dashoffset:0;paint-order:fill markers stroke" d="m 672.09114,805.78796 c 0,0 -22.7497,3.89995 -24.26635,10.61653 -1.51664,6.71658 24.26635,-10.61653 24.26635,-10.61653 z" id="path975"/> <path style="fill:#ffffff;fill-opacity:1;stroke:none;stroke-width:10;stroke-linecap:round;stroke-linejoin:round;stroke-miterlimit:4;stroke-dasharray:none;stroke-dashoffset:0;paint-order:fill markers stroke" d="m 667.5412,832.43761 c 0,0 -20.14973,0.43333 -22.09971,4.33328 -1.94997,3.89995 22.09971,-4.33328 22.09971,-4.33328 z" id="path977"/> <path style="fill:#ccae00;fill-opacity:1;stroke:none;stroke-width:10;stroke-linecap:round;stroke-linejoin:round;stroke-miterlimit:4;stroke-dasharray:none;stroke-dashoffset:0;paint-order:fill markers stroke" d="m 792.98623,583.40254 c 0,0 -28.18962,-4.90254 -30.64089,11.03072 -2.45127,15.93326 -19.61017,74.76377 -28.18962,89.4714 -8.57945,14.70763 31.86653,12.25636 46.57415,-28.18962 14.70763,-40.44597 12.25636,-72.3125 12.25636,-72.3125 z" id="path981"/> <path style="fill:#ffef2e;fill-opacity:1;stroke:none;stroke-width:10;stroke-linecap:round;stroke-linejoin:round;stroke-miterlimit:4;stroke-dasharray:none;stroke-dashoffset:0;paint-order:fill markers stroke" d="m 781.95551,591.98199 c 0,0 -8.57945,-7.35381 -13.48199,7.35381 -4.90254,14.70763 -18.38454,49.02543 -4.90254,41.67161 13.48199,-7.35381 20.8358,-17.15889 18.38453,-49.02542 z" id="path983"/> <path style="opacity:1;vector-effect:none;fill:#abb1b6;fill-opacity:1;stroke:none;stroke-width:10;stroke-linecap:round;stroke-linejoin:round;stroke-miterlimit:4;stroke-dasharray:none;stroke-dashoffset:0;stroke-opacity:1;paint-order:fill markers stroke" d="m 926.28057,495.31229 -22.0615,-213.2606 37.9947,143.39937 -14.7076,-137.27119 c 0,0 44.1229,-33.09216 26.964,-98.05085 -17.1589,-64.95868 -47.7998,-58.8305 -47.7998,-58.8305 l -49.0254,-318.66526 c 0,0 127.4661,24.51271 182.61973,268.4142 55.1536,243.90148 41.6716,387.30085 41.6716,387.30085 z" id="path355"/> <path style="opacity:1;vector-effect:none;fill:#636a72;fill-opacity:1;stroke:#000000;stroke-width:10;stroke-linecap:round;stroke-linejoin:round;stroke-miterlimit:4;stroke-dasharray:none;stroke-dashoffset:0;stroke-opacity:1;paint-order:fill markers stroke" d="m 974.3803,577.27436 c 0,0 -8.57945,215.71187 11.03072,232.87076 19.61018,17.1589 58.83048,20.83581 56.37928,-13.48199 -2.4513,-34.31779 -19.6102,-235.32203 -13.482,-247.57839 6.1281,-12.25636 9.8051,-30.64089 68.6356,-34.3178 58.8305,-3.6769 68.6356,22.06144 85.7945,-1.22563 17.1589,-23.28708 24.5127,-100.50212 -11.0308,-136.04555 -22.0614,62.50741 -37.9947,67.40995 -74.7637,69.86123 -36.7691,2.45127 -139.72249,7.35381 -154.43012,9.80508 -14.70763,2.45127 -1.22564,28.18962 -17.1589,28.18962 -15.93326,0 -22.06144,-28.18961 -22.06144,-28.18961 0,0 -19.61017,36.76906 3.67691,55.15359 23.28707,18.38454 71.08686,9.80509 67.40995,64.95869 z" id="path189"/> <path style="opacity:1;vector-effect:none;fill:#42474c;fill-opacity:1;stroke:none;stroke-width:10;stroke-linecap:round;stroke-linejoin:round;stroke-miterlimit:4;stroke-dasharray:none;stroke-dashoffset:0;stroke-opacity:1;paint-order:fill markers stroke" d="m 964.58727,532.14145 -39.5324,-25.79844 c 0,0 18.3846,2.45127 30.6409,-3.67691 12.2564,-6.12818 23.2871,-7.35381 39.2204,0 15.93323,7.35382 30.64093,7.35382 45.34853,0 14.7076,-7.35381 39.2203,-6.12818 60.0561,-9.80508 20.8358,-3.67691 45.3485,-20.83581 52.7024,-11.03072 7.3538,9.80508 7.3538,22.06144 -17.1589,22.06144 -24.5128,0 -53.928,-2.45127 -68.6356,4.90254 -14.7077,7.35381 -25.7384,12.25636 -31.8666,20.83581 -6.1281,8.57941 -9.805,205.90681 -9.805,205.90681 0,0 -29.41533,-50.2511 -37.99483,-39.2204 -13.4819,-60.0561 4.301,-145.7304 -22.975,-164.17505 z" id="path380"/> <path style="opacity:1;vector-effect:none;fill:#7c6400;fill-opacity:1;stroke:#000000;stroke-width:10;stroke-linecap:round;stroke-linejoin:round;stroke-miterlimit:4;stroke-dasharray:none;stroke-dashoffset:0;stroke-opacity:1;paint-order:fill markers stroke" d="m 967.48818,519.43444 c 0,0 -19.15765,-3.50508 -22.43933,32.00307 -3.28168,35.50814 4.80225,55.60993 19.53596,51.36617 14.7337,-4.24375 24.84045,-4.1981 31.3557,-31.66552 6.51529,-27.46742 -0.96208,-50.24185 -28.45233,-51.70372 z" id="path177"/> <path style="opacity:1;vector-effect:none;fill:#7c6400;fill-opacity:1;stroke:#000000;stroke-width:10;stroke-linecap:round;stroke-linejoin:round;stroke-miterlimit:4;stroke-dasharray:none;stroke-dashoffset:0;stroke-opacity:1;paint-order:fill markers stroke" d="m 1043.4233,522.89875 c -5.3453,-1.2132 -47.70374,-1.5532 -52.01843,32.31533 -4.3147,33.86853 -0.63922,141.49446 23.07693,155.87024 23.7161,14.37578 54.6201,16.89353 80.8564,-33.0768 26.2363,-49.97039 22.0202,-136.64169 -51.9149,-155.10877 z" id="path179"/> <path style="opacity:1;vector-effect:none;fill:#7c6400;fill-opacity:1;stroke:#000000;stroke-width:10;stroke-linecap:round;stroke-linejoin:round;stroke-miterlimit:4;stroke-dasharray:none;stroke-dashoffset:0;stroke-opacity:1;paint-order:fill markers stroke" d="m 451.0339,1104.2977 c 0,0 -60.05614,11.0307 -68.63559,35.5434 -8.57945,24.5127 15.93326,49.0254 55.1536,57.6049 39.22034,8.5794 82.11759,-7.3538 85.79449,-29.4153 3.67691,-22.0614 -37.9947,-68.6356 -72.3125,-63.733 z" id="path197"/> <path style="opacity:1;vector-effect:none;fill:#7c6400;fill-opacity:1;stroke:#000000;stroke-width:10;stroke-linecap:round;stroke-linejoin:round;stroke-miterlimit:4;stroke-dasharray:none;stroke-dashoffset:0;stroke-opacity:1;paint-order:fill markers stroke" d="m 702.2892,1082.2362 c -18.87705,-4.2415 -22.09314,7.4489 -50.25106,23.2871 -28.2227,15.8746 -73.53814,19.6102 -72.3125,36.7691 1.22564,17.1589 62.50742,39.2203 93.14831,35.5434 30.64089,-3.6769 47.79978,-18.3845 49.02542,-36.7691 1.22564,-18.3845 -10.2705,-56.7319 -19.61017,-58.8305 z" id="path199"/> <path style="opacity:1;vector-effect:none;fill:#ccae00;fill-opacity:1;stroke:none;stroke-width:10;stroke-linecap:round;stroke-linejoin:round;stroke-miterlimit:4;stroke-dasharray:none;stroke-dashoffset:0;stroke-opacity:1;paint-order:fill markers stroke" d="m 445.46077,1054.7346 c 0,0 -36.39952,6.0665 -24.26635,12.1331 12.13318,6.0666 34.66621,6.9333 44.19942,2.6 9.53321,-4.3333 -7.7999,-17.3331 -19.93307,-14.7331 z" id="path213"/> <path style="opacity:1;vector-effect:none;fill:#ccae00;fill-opacity:1;stroke:none;stroke-width:10;stroke-linecap:round;stroke-linejoin:round;stroke-miterlimit:4;stroke-dasharray:none;stroke-dashoffset:0;stroke-opacity:1;paint-order:fill markers stroke" d="m 593.65882,980.2022 c 0,0 9.53321,17.3331 -0.86666,34.6662 -10.39986,17.3331 -32.06624,39.8662 -32.06624,45.0661 0,5.1999 31.19959,29.4663 49.39935,28.5996 18.19976,-0.8666 47.66604,-31.1996 45.06607,-38.9995 -2.59996,-7.7999 -12.13317,-64.1325 -25.133,-71.0657 -12.99983,-6.9332 -36.39952,1.7333 -36.39952,1.7333 z" id="path215"/> <path style="opacity:1;vector-effect:none;fill:#ccae00;fill-opacity:1;stroke:none;stroke-width:10;stroke-linecap:round;stroke-linejoin:round;stroke-miterlimit:4;stroke-dasharray:none;stroke-dashoffset:0;stroke-opacity:1;paint-order:fill markers stroke" d="m 578.05902,944.6693 c 0,0 23.3997,-2.5999 39.86615,-5.1999 16.46644,-2.6 19.93307,-10.3999 23.39969,-2.6 3.46662,7.7999 -8.66656,14.7332 -22.53304,18.1998 -13.86648,3.4666 -27.73297,7.7999 -32.06624,3.4666 -4.33328,-4.3332 -8.66656,-13.8665 -8.66656,-13.8665 z" id="path217"/> <path style="opacity:1;vector-effect:none;fill:#ccae00;fill-opacity:1;stroke:none;stroke-width:10;stroke-linecap:round;stroke-linejoin:round;stroke-miterlimit:4;stroke-dasharray:none;stroke-dashoffset:0;stroke-opacity:1;paint-order:fill markers stroke" d="m 656.92465,963.7358 c 0,0 -7.7999,-0.8667 -3.46662,8.6665 4.33328,9.5332 14.73314,44.1994 28.59962,45.9327 13.86649,1.7333 28.59962,6.9333 26.86632,0.8667 -1.7333,-6.0666 -43.33277,-54.5993 -51.99932,-55.4659 z" id="path219"/> <path style="opacity:1;vector-effect:none;fill:#ccae00;fill-opacity:1;stroke:none;stroke-width:10;stroke-linecap:round;stroke-linejoin:round;stroke-miterlimit:4;stroke-dasharray:none;stroke-dashoffset:0;stroke-opacity:1;paint-order:fill markers stroke" d="m 407.32794,1088.9674 c 0,0 -4.33328,19.0665 0,18.6331 4.33328,-0.4333 21.23305,-7.3665 21.66638,-9.9665 0.43333,-2.6 -17.76643,-12.9998 -21.66638,-8.6666 z" id="path221"/> <path style="opacity:1;vector-effect:none;fill:#ccae00;fill-opacity:1;stroke:none;stroke-width:10;stroke-linecap:round;stroke-linejoin:round;stroke-miterlimit:4;stroke-dasharray:none;stroke-dashoffset:0;stroke-opacity:1;paint-order:fill markers stroke" d="m 464.52719,1092.4341 c 0,0 27.29964,-6.9333 37.6995,-10.3999 10.39986,-3.4666 15.16647,-2.6 16.03312,2.6 0.86666,5.1999 -5.63326,29.8996 -11.69984,29.8996 -6.06659,0 -8.66656,-9.5332 -18.63309,-12.1332 -9.96654,-2.6 -25.56633,-9.0999 -23.39969,-9.9665 z" id="path223"/> <path style="opacity:1;vector-effect:none;fill:#ccae00;fill-opacity:1;stroke:none;stroke-width:10;stroke-linecap:round;stroke-linejoin:round;stroke-miterlimit:4;stroke-dasharray:none;stroke-dashoffset:0;stroke-opacity:1;paint-order:fill markers stroke" d="m 457.16062,1113.2338 c -3.0333,0.4333 -46.79939,8.6665 -56.76592,22.533 -9.96654,13.8665 0.43333,29.033 20.3664,36.3995 19.93307,7.3666 45.93273,5.2 64.99914,-8.2332 19.06642,-13.4331 -6.49991,-53.2993 -28.59962,-50.6993 z" id="path225"/> <path style="opacity:1;vector-effect:none;fill:#ccae00;fill-opacity:1;stroke:none;stroke-width:10;stroke-linecap:round;stroke-linejoin:round;stroke-miterlimit:4;stroke-dasharray:none;stroke-dashoffset:0;stroke-opacity:1;paint-order:fill markers stroke" d="m 690.72421,1093.734 c 0,0 -17.33311,12.5665 -29.46628,18.6331 -12.13318,6.0666 -31.63292,12.1332 -42.03278,16.0332 -10.39986,3.8999 -25.56633,8.2332 -21.66638,13.4331 3.89995,5.1999 39.43281,25.133 68.03243,18.6331 28.59963,-6.4999 38.99947,-18.6331 39.43277,-32.4996 0.4334,-13.8665 -7.36652,-36.8328 -14.29976,-34.2329 z" id="path227"/> <path style="opacity:1;vector-effect:none;fill:#ccae00;fill-opacity:1;stroke:none;stroke-width:10;stroke-linecap:round;stroke-linejoin:round;stroke-miterlimit:4;stroke-dasharray:none;stroke-dashoffset:0;stroke-opacity:1;paint-order:fill markers stroke" d="m 668.19117,1074.2343 c 0,0 -25.99966,22.533 -25.56633,24.2663 0.43333,1.7334 25.56633,-12.9998 29.03295,-16.8997 3.46662,-3.9 4.7666,-10.3999 -3.46662,-7.3666 z" id="path229"/> <path style="opacity:1;vector-effect:none;fill:#ccae00;fill-opacity:1;stroke:none;stroke-width:10;stroke-linecap:round;stroke-linejoin:round;stroke-miterlimit:4;stroke-dasharray:none;stroke-dashoffset:0;stroke-opacity:1;paint-order:fill markers stroke" d="m 602.32537,1111.9338 c 0,0 -19.49974,-3.8999 -18.63309,0.4333 0.86666,4.3333 2.16664,7.7999 7.7999,6.0666 5.63326,-1.7333 12.13317,-4.3333 10.83319,-6.4999 z" id="path231"/> <path style="opacity:1;vector-effect:none;fill:#ccae00;fill-opacity:1;stroke:none;stroke-width:10;stroke-linecap:round;stroke-linejoin:round;stroke-miterlimit:4;stroke-dasharray:none;stroke-dashoffset:0;stroke-opacity:1;paint-order:fill markers stroke" d="m 383.06159,1184.2995 c -1.29998,1.7333 -21.23305,41.5995 -25.133,57.6326 -3.89995,16.0331 -9.53321,41.1661 1.29998,36.8328 10.8332,-4.3332 34.23289,-17.3331 68.46577,-14.7331 34.23288,2.6 52.86597,12.1332 59.36588,6.4999 6.49992,-5.6332 6.93325,-51.566 2.59997,-56.7659 -4.33328,-5.1999 -18.63309,-2.6 -25.56633,-3.0333 -6.93324,-0.4333 -39.43281,-3.4666 -53.73263,-10.3999 -14.29981,-6.9332 -23.39969,-18.633 -27.29964,-16.0331 z" id="path233"/> <path style="opacity:1;vector-effect:none;fill:#ccae00;fill-opacity:1;stroke:none;stroke-width:10;stroke-linecap:round;stroke-linejoin:round;stroke-miterlimit:4;stroke-dasharray:none;stroke-dashoffset:0;stroke-opacity:1;paint-order:fill markers stroke" d="m 583.25896,1162.6331 c 0,0 -13.43316,48.9661 -16.46645,61.5326 -3.0333,12.5665 9.96653,42.8994 18.63308,52.8659 8.66656,9.9666 25.99966,17.7665 41.59946,9.9666 15.59979,-7.7999 45.4994,-25.133 54.16595,-32.4996 8.66655,-7.3666 9.09988,-64.1325 3.03329,-66.2991 -6.06658,-2.1667 -29.46628,3.0333 -49.83267,-2.1667 -20.3664,-5.1999 -47.66604,-26.433 -51.13266,-23.3997 z" id="path235"/> <path style="opacity:1;vector-effect:none;fill:#ccae00;fill-opacity:1;stroke:none;stroke-width:10;stroke-linecap:round;stroke-linejoin:round;stroke-miterlimit:4;stroke-dasharray:none;stroke-dashoffset:0;stroke-opacity:1;paint-order:fill markers stroke" d="m 407.76127,1284.8315 c -1.73331,-0.4333 -23.39969,0.8667 -36.39952,9.9666 -12.99983,9.0998 -28.59963,22.9663 -31.19959,34.6662 -2.59997,11.6998 -6.49992,25.133 19.49974,34.6662 25.99966,9.5332 92.29879,7.7999 106.5986,-1.3 14.29981,-9.0999 19.93307,-42.0328 6.06658,-55.0326 -13.86648,-12.9998 -33.79955,-25.5663 -64.56581,-22.9664 z" id="path237"/> <path style="opacity:1;vector-effect:none;fill:#ccae00;fill-opacity:1;stroke:none;stroke-width:10;stroke-linecap:round;stroke-linejoin:round;stroke-miterlimit:4;stroke-dasharray:none;stroke-dashoffset:0;stroke-opacity:1;paint-order:fill markers stroke" d="m 702.42407,1279.6316 c 0,0 -27.73299,6.9332 -41.16614,14.2998 -13.43316,7.3666 -33.36623,18.1998 -50.69933,16.0331 -17.33311,-2.1666 -35.53287,-15.1664 -39.86615,-18.1997 -4.33327,-3.0333 -14.73313,-1.3 -6.93324,15.1664 7.7999,16.4665 21.66638,22.0997 36.39952,21.2331 14.73314,-0.8667 35.9662,5.6332 61.96585,12.5665 25.99966,6.9332 56.76589,17.7664 79.29899,9.9665 22.533,-7.7999 15.1664,-27.2996 6.9332,-37.2661 -8.2332,-9.9666 -35.5329,-35.5329 -45.9327,-33.7996 z" id="path239"/> <path style="opacity:1;vector-effect:none;fill:#ffef2e;fill-opacity:1;stroke:none;stroke-width:10;stroke-linecap:round;stroke-linejoin:round;stroke-miterlimit:4;stroke-dasharray:none;stroke-dashoffset:0;stroke-opacity:1;paint-order:fill markers stroke" d="m 612.29191,981.0689 c 0,0 -12.99983,-2.6 -12.13318,3.8999 0.86666,6.4999 2.16664,29.8996 -1.73331,46.7994 -3.89995,16.8998 -12.5665,37.6995 -5.19993,43.3328 7.36657,5.6332 14.29981,9.9665 19.49974,4.3332 5.19994,-5.6332 7.7999,-98.3653 -0.43332,-98.3653 z" id="path241"/> <path style="opacity:1;vector-effect:none;fill:#ffef2e;fill-opacity:1;stroke:none;stroke-width:10;stroke-linecap:round;stroke-linejoin:round;stroke-miterlimit:4;stroke-dasharray:none;stroke-dashoffset:0;stroke-opacity:1;paint-order:fill markers stroke" d="m 628.75836,984.1022 c 0,0 -10.39987,-3.4667 -8.66656,4.7666 1.73331,8.2332 6.49992,72.799 6.49992,81.0322 0,8.2333 12.99983,-2.5999 16.46645,-10.8332 3.46662,-8.2332 -8.23323,-73.2323 -14.29981,-74.9656 z" id="path243"/> <path style="opacity:1;vector-effect:none;fill:#ffef2e;fill-opacity:1;stroke:none;stroke-width:10;stroke-linecap:round;stroke-linejoin:round;stroke-miterlimit:4;stroke-dasharray:none;stroke-dashoffset:0;stroke-opacity:1;paint-order:fill markers stroke" d="m 658.22463,969.369 c 0,0 -1.29998,3.4666 1.73332,8.6666 3.03329,5.1999 12.5665,35.9662 19.06641,34.6662 6.49991,-1.3 -15.16647,-44.1994 -20.79973,-43.3328 z" id="path245"/> <path style="opacity:1;vector-effect:none;fill:#ffef2e;fill-opacity:1;stroke:none;stroke-width:10;stroke-linecap:round;stroke-linejoin:round;stroke-miterlimit:4;stroke-dasharray:none;stroke-dashoffset:0;stroke-opacity:1;paint-order:fill markers stroke" d="m 673.3911,982.8022 c 0,0 10.83319,31.6329 16.03312,32.9329 5.19994,1.3 8.23323,-3.4666 5.19994,-7.7999 -3.0333,-4.3333 -17.33311,-26.433 -21.23306,-25.133 z" id="path247"/> <path style="opacity:1;vector-effect:none;fill:#ffef2e;fill-opacity:1;stroke:none;stroke-width:10;stroke-linecap:round;stroke-linejoin:round;stroke-miterlimit:4;stroke-dasharray:none;stroke-dashoffset:0;stroke-opacity:1;paint-order:fill markers stroke" d="m 437.22755,1059.5012 c 0,0 -16.03313,1.7333 -9.96654,6.0666 6.06659,4.3332 9.96654,6.4999 12.13317,3.4666 2.16664,-3.0333 -0.43332,-9.0999 -2.16663,-9.5332 z" id="path249"/> <path style="opacity:1;vector-effect:none;fill:#ffef2e;fill-opacity:1;stroke:none;stroke-width:10;stroke-linecap:round;stroke-linejoin:round;stroke-miterlimit:4;stroke-dasharray:none;stroke-dashoffset:0;stroke-opacity:1;paint-order:fill markers stroke" d="m 452.39401,1060.3678 c -1.73331,0 -8.66655,5.6333 -5.19993,7.3666 3.46662,1.7333 10.39987,1.7333 12.13318,-0.4333 1.73331,-2.1667 -2.16664,-7.7999 -6.93325,-6.9333 z" id="path251"/> <path style="opacity:1;vector-effect:none;fill:#ffef2e;fill-opacity:1;stroke:none;stroke-width:10;stroke-linecap:round;stroke-linejoin:round;stroke-miterlimit:4;stroke-dasharray:none;stroke-dashoffset:0;stroke-opacity:1;paint-order:fill markers stroke" d="m 493.99347,1089.4008 c 0,0 -17.33311,2.5999 -10.8332,6.0666 6.49992,3.4666 9.09988,5.6332 12.99983,2.1666 3.89995,-3.4666 2.59997,-9.0999 -2.16663,-8.2332 z" id="path253"/> <path style="opacity:1;vector-effect:none;fill:#ffef2e;fill-opacity:1;stroke:none;stroke-width:10;stroke-linecap:round;stroke-linejoin:round;stroke-miterlimit:4;stroke-dasharray:none;stroke-dashoffset:0;stroke-opacity:1;paint-order:fill markers stroke" d="m 409.92791,1091.5674 c 0,0 -6.93325,12.9998 -0.43333,11.6999 6.49991,-1.3 5.63326,-6.5 4.7666,-9.0999 -0.86665,-2.6 -4.33327,-2.6 -4.33327,-2.6 z" id="path255"/> <path style="opacity:1;vector-effect:none;fill:#ffef2e;fill-opacity:1;stroke:none;stroke-width:10;stroke-linecap:round;stroke-linejoin:round;stroke-miterlimit:4;stroke-dasharray:none;stroke-dashoffset:0;stroke-opacity:1;paint-order:fill markers stroke" d="m 459.32726,1118.0004 c 0,0 -38.56616,9.0999 -48.09937,16.4664 -9.53321,7.3666 -6.93324,16.8998 2.59997,20.3664 9.5332,3.4667 47.66603,-0.4333 54.59928,-8.2332 6.93324,-7.7999 -2.16664,-30.3329 -9.09988,-28.5996 z" id="path257"/> <path style="opacity:1;vector-effect:none;fill:#ffef2e;fill-opacity:1;stroke:none;stroke-width:10;stroke-linecap:round;stroke-linejoin:round;stroke-miterlimit:4;stroke-dasharray:none;stroke-dashoffset:0;stroke-opacity:1;paint-order:fill markers stroke" d="m 683.79096,1104.5672 c -2.16663,0.4334 -23.83301,16.0332 -38.56615,20.7998 -14.73314,4.7666 -40.29947,12.1331 -31.63292,16.8997 8.66655,4.7666 43.33276,3.9 63.69916,-3.8999 20.3664,-7.7999 14.73314,-38.5662 6.49991,-33.7996 z" id="path259"/> <path style="opacity:1;vector-effect:none;fill:#ffef2e;fill-opacity:1;stroke:none;stroke-width:10;stroke-linecap:round;stroke-linejoin:round;stroke-miterlimit:4;stroke-dasharray:none;stroke-dashoffset:0;stroke-opacity:1;paint-order:fill markers stroke" d="m 586.29225,1170.8664 c 0,0 -14.73314,52.8659 -10.39986,69.3324 4.33327,16.4664 9.96653,33.7995 16.03312,31.1996 6.06659,-2.6 13.43315,-14.7332 11.69984,-31.1996 -1.73331,-16.4665 0.43333,-40.2995 3.89995,-46.3661 3.46662,-6.0666 -15.59979,-25.9996 -21.23305,-22.9663 z" id="path261"/> <path style="opacity:1;vector-effect:none;fill:#ffef2e;fill-opacity:1;stroke:none;stroke-width:10;stroke-linecap:round;stroke-linejoin:round;stroke-miterlimit:4;stroke-dasharray:none;stroke-dashoffset:0;stroke-opacity:1;paint-order:fill markers stroke" d="m 621.39179,1192.0994 c -2.16664,0 -10.39987,7.7999 -12.13318,16.8998 -1.73331,9.0999 0.86666,33.7995 1.73331,42.8994 0.86666,9.0999 -6.93324,22.0997 -2.16663,27.733 4.7666,5.6333 22.0997,-0.8667 31.19958,-9.0999 9.09988,-8.2332 12.13318,-40.2995 10.39987,-53.2993 -1.73331,-12.9998 -6.49992,-22.0997 -12.13318,-22.9663 -5.63326,-0.8667 -12.5665,-3.0333 -16.89977,-2.1667 z" id="path263"/> <path style="opacity:1;vector-effect:none;fill:#ffef2e;fill-opacity:1;stroke:none;stroke-width:10;stroke-linecap:round;stroke-linejoin:round;stroke-miterlimit:4;stroke-dasharray:none;stroke-dashoffset:0;stroke-opacity:1;paint-order:fill markers stroke" d="m 388.69485,1193.8327 c 0,0 -4.7666,2.6 -9.09988,8.2333 -4.33327,5.6332 -17.76643,45.066 -16.89977,57.1992 0.86665,12.1332 9.5332,8.6666 20.36639,3.4666 10.83319,-5.1999 19.93307,-0.8666 24.26635,-6.9332 4.33328,-6.0666 9.96654,-38.1329 6.49992,-44.1994 -3.46663,-6.0666 -11.26652,-5.2 -15.16647,-9.0999 -3.89995,-3.9 -4.76661,-10.8332 -9.96654,-8.6666 z" id="path265"/> <path style="opacity:1;vector-effect:none;fill:#ffef2e;fill-opacity:1;stroke:none;stroke-width:10;stroke-linecap:round;stroke-linejoin:round;stroke-miterlimit:4;stroke-dasharray:none;stroke-dashoffset:0;stroke-opacity:1;paint-order:fill markers stroke" d="m 422.92774,1212.4658 c 0,0 -9.53321,40.2995 -4.33328,43.3328 5.19993,3.0333 22.09971,4.3333 26.86631,1.3 4.76661,-3.0333 4.33328,-31.1996 3.0333,-36.3996 -1.29999,-5.1999 -20.3664,-10.8332 -25.56633,-8.2332 z" id="path267"/> <path style="opacity:1;vector-effect:none;fill:#ffef2e;fill-opacity:1;stroke:none;stroke-width:10;stroke-linecap:round;stroke-linejoin:round;stroke-miterlimit:4;stroke-dasharray:none;stroke-dashoffset:0;stroke-opacity:1;paint-order:fill markers stroke" d="m 394.32811,1290.0315 c -2.16664,0 -16.46645,6.9332 -26.43298,16.0331 -9.96654,9.0999 -16.03312,27.7329 -13.86649,38.9995 2.16664,11.2665 23.83302,19.0664 39.43282,17.7664 15.59979,-1.3 23.83302,-14.2998 22.53303,-26.433 -1.29998,-12.1332 8.66656,-40.7328 2.59997,-44.1994 -6.06659,-3.4666 -17.33311,-3.4666 -24.26635,-2.1666 z" id="path269"/> <path style="opacity:1;vector-effect:none;fill:#ffef2e;fill-opacity:1;stroke:none;stroke-width:10;stroke-linecap:round;stroke-linejoin:round;stroke-miterlimit:4;stroke-dasharray:none;stroke-dashoffset:0;stroke-opacity:1;paint-order:fill markers stroke" d="m 432.46094,1294.7981 c -1.73331,0 -5.63326,3.4666 -8.23322,10.8332 -2.59997,7.3665 -1.29998,32.9329 0.43333,38.9994 1.73331,6.0666 -4.76661,16.0332 3.03329,18.1998 7.7999,2.1666 18.63309,-5.6333 16.03312,-14.7331 -2.59996,-9.0999 -4.7666,-23.8331 0,-35.5329 4.76661,-11.6999 -2.59996,-19.0664 -11.26652,-17.7664 z" id="path271"/> <path style="opacity:1;vector-effect:none;fill:#ffef2e;fill-opacity:1;stroke:none;stroke-width:10;stroke-linecap:round;stroke-linejoin:round;stroke-miterlimit:4;stroke-dasharray:none;stroke-dashoffset:0;stroke-opacity:1;paint-order:fill markers stroke" d="m 592.29484,1314.6497 c 0,0 -12.86918,-20.223 -18.38454,-11.0307 -5.51536,9.1922 11.64354,17.1589 15.93326,16.546 4.28973,-0.6128 2.45128,-5.5153 2.45128,-5.5153 z" id="path273"/> <path style="opacity:1;vector-effect:none;fill:#ffef2e;fill-opacity:1;stroke:none;stroke-width:10;stroke-linecap:round;stroke-linejoin:round;stroke-miterlimit:4;stroke-dasharray:none;stroke-dashoffset:0;stroke-opacity:1;paint-order:fill markers stroke" d="m 690.9585,1293.8139 c -3.06409,0 -45.96133,11.0307 -53.31515,20.223 -7.35381,9.1922 20.83581,17.1589 43.51007,21.4486 22.67425,4.2897 40.44595,7.9666 44.12285,-1.8385 3.6769,-9.805 -17.1589,-42.2844 -34.31777,-39.8331 z" id="path275"/> <path style="opacity:1;vector-effect:none;fill:#ffffff;fill-opacity:1;stroke:none;stroke-width:10;stroke-linecap:round;stroke-linejoin:round;stroke-miterlimit:4;stroke-dasharray:none;stroke-dashoffset:0;stroke-opacity:1;paint-order:fill markers stroke" d="m 610.67937,987.405 c 0,0 -6.12818,-3.6769 -7.35381,3.6769 -1.22564,7.3538 -1.22564,29.4152 4.28972,25.7383 5.51536,-3.6769 6.12818,-29.4152 3.06409,-29.4152 z" id="path295"/> <path style="opacity:1;vector-effect:none;fill:#ffffff;fill-opacity:1;stroke:none;stroke-width:10;stroke-linecap:round;stroke-linejoin:round;stroke-miterlimit:4;stroke-dasharray:none;stroke-dashoffset:0;stroke-opacity:1;paint-order:fill markers stroke" d="m 632.12799,1023.5612 c 0,0 0,0.6129 -2.45127,11.6436 -2.45127,11.0307 -0.61282,25.1255 4.28973,16.5461 4.90254,-8.5795 1.22563,-30.6409 -1.83846,-28.1897 z" id="path297"/> <path style="opacity:1;vector-effect:none;fill:#ffffff;fill-opacity:1;stroke:none;stroke-width:10;stroke-linecap:round;stroke-linejoin:round;stroke-miterlimit:4;stroke-dasharray:none;stroke-dashoffset:0;stroke-opacity:1;paint-order:fill markers stroke" d="m 671.96115,1120.9993 c 0,0 -14.09481,5.5153 -9.19227,11.0307 4.90255,5.5153 22.06144,-12.2564 9.19227,-11.0307 z" id="path299"/> <path style="opacity:1;vector-effect:none;fill:#ffffff;fill-opacity:1;stroke:none;stroke-width:10;stroke-linecap:round;stroke-linejoin:round;stroke-miterlimit:4;stroke-dasharray:none;stroke-dashoffset:0;stroke-opacity:1;paint-order:fill markers stroke" d="m 435.41348,1130.8043 c 0,0 -17.1589,1.2257 -12.86918,8.5795 4.28973,7.3538 24.51272,-9.8051 12.86918,-8.5795 z" id="path301"/> <path style="opacity:1;vector-effect:none;fill:#ffffff;fill-opacity:1;stroke:none;stroke-width:10;stroke-linecap:round;stroke-linejoin:round;stroke-miterlimit:4;stroke-dasharray:none;stroke-dashoffset:0;stroke-opacity:1;paint-order:fill markers stroke" d="m 389.45214,1201.8912 c 0,0 -18.38453,9.8051 -7.96663,15.9333 10.4179,6.1282 15.32045,-18.3846 7.96663,-15.9333 z" id="path303"/> <path style="opacity:1;vector-effect:none;fill:#ffffff;fill-opacity:1;stroke:none;stroke-width:10;stroke-linecap:round;stroke-linejoin:round;stroke-miterlimit:4;stroke-dasharray:none;stroke-dashoffset:0;stroke-opacity:1;paint-order:fill markers stroke" d="m 595.35892,1184.1195 c 0,0 -11.03072,-0.6128 -7.96663,7.3538 3.06409,7.9666 14.09481,-6.1282 7.96663,-7.3538 z" id="path305"/> <path style="opacity:1;vector-effect:none;fill:#ffffff;fill-opacity:1;stroke:none;stroke-width:10;stroke-linecap:round;stroke-linejoin:round;stroke-miterlimit:4;stroke-dasharray:none;stroke-dashoffset:0;stroke-opacity:1;paint-order:fill markers stroke" d="m 624.16136,1198.8271 c 0,0 -14.70763,6.741 -6.12818,12.8692 8.57945,6.1282 16.54608,-15.9333 6.12818,-12.8692 z" id="path307"/> <path style="opacity:1;vector-effect:none;fill:#ffffff;fill-opacity:1;stroke:none;stroke-width:10;stroke-linecap:round;stroke-linejoin:round;stroke-miterlimit:4;stroke-dasharray:none;stroke-dashoffset:0;stroke-opacity:1;paint-order:fill markers stroke" d="m 394.35469,1295.6523 c 0,0 -21.44863,7.9667 -20.22299,15.3205 1.22563,7.3538 17.77171,2.4513 25.73835,-3.0641 7.96663,-5.5154 1.83845,-13.482 -5.51536,-12.2564 z" id="path309"/> <path style="opacity:1;vector-effect:none;fill:#ffffff;fill-opacity:1;stroke:none;stroke-width:10;stroke-linecap:round;stroke-linejoin:round;stroke-miterlimit:4;stroke-dasharray:none;stroke-dashoffset:0;stroke-opacity:1;paint-order:fill markers stroke" d="m 682.37905,1302.3933 c 0,0 -17.77171,1.2257 -17.77171,7.9667 0,6.741 22.67426,11.6435 30.02807,9.805 7.35386,-1.8384 -4.90254,-18.9973 -12.25636,-17.7717 z" id="path311"/> <path style="opacity:1;vector-effect:none;fill:#ccae00;fill-opacity:1;stroke:none;stroke-width:10;stroke-linecap:round;stroke-linejoin:round;stroke-miterlimit:4;stroke-dasharray:none;stroke-dashoffset:0;stroke-opacity:1;paint-order:fill markers stroke" d="m 1039.1196,538.208 c 0,0 -27.7329,0 -34.6662,18.1998 -6.93323,18.1998 -1.7333,123.065 16.4665,133.4649 18.1997,10.3999 52.866,7.7999 61.5325,-38.1328 8.6666,-45.9328 -6.9332,-118.7318 -43.3328,-113.5319 z" id="path331"/> <path style="opacity:1;vector-effect:none;fill:#ccae00;fill-opacity:1;stroke:none;stroke-width:10;stroke-linecap:round;stroke-linejoin:round;stroke-miterlimit:4;stroke-dasharray:none;stroke-dashoffset:0;stroke-opacity:1;paint-order:fill markers stroke" d="m 964.58727,532.14145 c 0,0 -8.6666,5.19995 -10.3999,19.06645 -1.7333,13.8664 0,34.6662 10.3999,30.3329 10.3999,-4.3333 11.2665,-29.4663 12.9998,-35.5329 1.7333,-6.0666 -2.5999,-16.46642 -12.9998,-13.86645 z" id="path333"/> <path style="opacity:1;vector-effect:none;fill:#ccae00;fill-opacity:1;stroke:none;stroke-width:10;stroke-linecap:round;stroke-linejoin:round;stroke-miterlimit:4;stroke-dasharray:none;stroke-dashoffset:0;stroke-opacity:1;paint-order:fill markers stroke" d="m 930.78767,575.4742 c -7.7999,0 -80.5989,11.2665 -95.332,25.133 -14.7332,13.8665 -18.1998,72.7991 -15.5998,87.5322 2.5999,14.7331 64.9991,7.7999 93.5987,1.7333 28.5997,-6.0666 44.1995,-16.4664 43.3328,-31.1996 -0.8667,-14.7331 -16.4665,-32.9329 -19.9331,-46.7994 -3.4666,-13.8665 6.0666,-36.3995 -6.0666,-36.3995 z" id="path335"/> <path style="opacity:1;vector-effect:none;fill:#ffef2e;fill-opacity:1;stroke:none;stroke-width:10;stroke-linecap:round;stroke-linejoin:round;stroke-miterlimit:4;stroke-dasharray:none;stroke-dashoffset:0;stroke-opacity:1;paint-order:fill markers stroke" d="m 923.85447,585.0074 c -3.4666,0 -78.8656,6.9333 -84.9322,25.9997 -6.0666,19.0664 -2.6,25.9996 23.3997,19.0664 25.9996,-6.9333 54.5993,-12.9998 58.9325,-18.1998 4.3333,-5.1999 12.9999,-28.5996 2.6,-26.8663 z" id="path337"/> <path style="opacity:1;vector-effect:none;fill:#ffef2e;fill-opacity:1;stroke:none;stroke-width:10;stroke-linecap:round;stroke-linejoin:round;stroke-miterlimit:4;stroke-dasharray:none;stroke-dashoffset:0;stroke-opacity:1;paint-order:fill markers stroke" d="m 926.45447,630.9401 c 0,0 -24.2664,0.8667 -23.3997,10.3999 0.8666,9.5332 16.4664,20.7997 25.9996,13.8665 9.5332,-6.9333 6.0666,-22.533 -2.5999,-24.2664 z" id="path339"/> <path style="opacity:1;vector-effect:none;fill:#ffef2e;fill-opacity:1;stroke:none;stroke-width:10;stroke-linecap:round;stroke-linejoin:round;stroke-miterlimit:4;stroke-dasharray:none;stroke-dashoffset:0;stroke-opacity:1;paint-order:fill markers stroke" d="m 1048.6529,550.3412 c -3.4667,0 -18.1998,-5.1999 -29.4663,6.0666 -11.2665,11.2665 -13.8665,39.8661 6.9332,36.3995 20.7997,-3.4666 32.9329,-11.2665 34.6662,-19.9331 1.7333,-8.6665 -1.7333,-22.533 -12.1331,-22.533 z" id="path341"/> <path style="opacity:1;vector-effect:none;fill:#ffef2e;fill-opacity:1;stroke:none;stroke-width:10;stroke-linecap:round;stroke-linejoin:round;stroke-miterlimit:4;stroke-dasharray:none;stroke-dashoffset:0;stroke-opacity:1;paint-order:fill markers stroke" d="m 966.32057,537.3414 c 0,0 -13.8665,4.3333 -8.6665,13.8665 5.1999,9.5332 8.6665,1.7333 12.1331,-4.3333 3.4666,-6.0666 -3.4666,-9.5332 -3.4666,-9.5332 z" id="path343"/> <path style="opacity:1;vector-effect:none;fill:#ffef2e;fill-opacity:1;stroke:none;stroke-width:10;stroke-linecap:round;stroke-linejoin:round;stroke-miterlimit:4;stroke-dasharray:none;stroke-dashoffset:0;stroke-opacity:1;paint-order:fill markers stroke" d="m 769.58987,646.5399 c 0,0 -12.9999,2.6 -16.4665,12.9999 -3.4666,10.3998 21.6664,0 16.4665,-12.9999 z" id="path345"/> <path style="opacity:1;vector-effect:none;fill:#ccae00;fill-opacity:1;stroke:none;stroke-width:10;stroke-linecap:round;stroke-linejoin:round;stroke-miterlimit:4;stroke-dasharray:none;stroke-dashoffset:0;stroke-opacity:1;paint-order:fill markers stroke" d="m 792.98957,715.8724 c 0,0 -17.3331,18.1997 -38.9995,23.3997 -21.6664,5.1999 -13.8665,11.2665 13.8665,6.9332 27.7329,-4.3333 32.9329,-5.1999 33.7995,-13.8665 0.8667,-8.6665 3.4666,-19.9331 -8.6665,-16.4664 z" id="path347"/> <path style="opacity:1;vector-effect:none;fill:#e9ebec;fill-opacity:1;stroke:none;stroke-width:10;stroke-linecap:round;stroke-linejoin:round;stroke-miterlimit:4;stroke-dasharray:none;stroke-dashoffset:0;stroke-opacity:1;paint-order:fill markers stroke" d="m 817.19897,-305.02776 39.2203,93.14831 c 0,0 247.57843,63.73305 259.83483,639.78178 26.964,-29.41525 39.2203,-63.73305 39.2203,-63.73305 0,0 -4.9025,-355.43432 -80.8919,-475.54661 -75.98943,-120.11229 -257.38353,-193.65043 -257.38353,-193.65043 z" id="path349"/> <path style="opacity:1;vector-effect:none;fill:#f8f8f9;fill-opacity:1;stroke:none;stroke-width:10;stroke-linecap:round;stroke-linejoin:round;stroke-miterlimit:4;stroke-dasharray:none;stroke-dashoffset:0;stroke-opacity:1;paint-order:fill markers stroke" d="m 970.40337,-130.9875 c 0,0 72.31253,77.21504 99.27653,197.32733 7.3538,-58.83051 29.4153,-68.6356 41.6716,-41.67161 -20.8358,-64.95869 -19.6101,-150.75318 -109.0815,-199.77861 30.6409,49.02543 -31.86663,44.12289 -31.86663,44.12289 z" id="path351"/> <path style="opacity:1;vector-effect:none;fill:#ffffff;fill-opacity:1;stroke:none;stroke-width:10;stroke-linecap:round;stroke-linejoin:round;stroke-miterlimit:4;stroke-dasharray:none;stroke-dashoffset:0;stroke-opacity:1;paint-order:fill markers stroke" d="m 997.36737,-110.1517 c 0,0 33.09223,49.02543 45.34853,82.11759 6.1282,-36.76907 25.7384,-40.44598 37.9948,-26.96399 -7.3539,-47.79979 -24.5128,-72.3125 -44.1229,-85.79449 1.2256,28.18962 -39.22043,30.64089 -39.22043,30.64089 z" id="path353"/> <path style="opacity:1;vector-effect:none;fill:#acb2b7;fill-opacity:1;stroke:none;stroke-width:10;stroke-linecap:round;stroke-linejoin:round;stroke-miterlimit:4;stroke-dasharray:none;stroke-dashoffset:0;stroke-opacity:1;paint-order:fill markers stroke" d="m 948.34197,480.60466 c 0,0 -4.9025,-13.48199 13.482,-13.48199 18.3845,0 139.72253,-1.22564 170.36333,-12.25636 30.6409,-11.03072 37.9948,-31.86652 42.8973,-50.25106 9.8051,51.4767 -6.1282,95.59958 -6.1282,95.59958 0,0 7.3538,-36.76907 -8.5794,-36.76907 -15.9333,0 -33.0922,11.03072 -66.1844,14.70763 -33.0921,3.67691 -136.04553,-7.35381 -145.85063,2.45127 z" id="path376"/> <path style="opacity:1;vector-effect:none;fill:#acb2b7;fill-opacity:1;stroke:none;stroke-width:10;stroke-linecap:round;stroke-linejoin:round;stroke-miterlimit:4;stroke-dasharray:none;stroke-dashoffset:0;stroke-opacity:1;paint-order:fill markers stroke" d="m 988.78797,724.5061 c 0,0 -6.1282,66.1844 9.8051,71.0869 15.93323,4.9026 17.15893,-33.0921 12.25633,-47.7998 -4.9025,-14.7076 -12.25633,-36.769 -22.06143,-23.2871 z" id="path378"/> </g> <g id="layer1" style="display:inline" transform="translate(298.12943,465.3786)"> <path style="fill:#42474c;fill-opacity:1;stroke:#000000;stroke-width:10;stroke-linecap:round;stroke-linejoin:round;stroke-miterlimit:4;stroke-dasharray:none;stroke-dashoffset:0;paint-order:fill markers stroke" d="m 742.73517,475.54661 4.28973,60.05614 -240.22458,34.3178 -89.4714,-54.54078 -0.61282,-74.76378 235.32204,7.96664 z" id="path894"/> <path style="fill:#7c6400;fill-opacity:1;stroke:#000000;stroke-width:10;stroke-linecap:round;stroke-linejoin:round;stroke-miterlimit:4;stroke-dasharray:none;stroke-dashoffset:0;paint-order:fill markers stroke" d="m 436.32627,531.92585 c 0,0 -20.8358,-77.21505 11.03072,-73.53814 31.86653,3.67691 197.32733,41.67161 247.57839,33.09216 50.25106,-8.57945 58.83051,-20.8358 57.60488,-39.22034 C 751.31462,433.875 750.08898,294.15254 616.4947,254.9322 482.90042,215.71186 362.78814,289.25 338.27542,359.11123 c -24.51271,69.86123 -29.41525,123.78919 -4.90254,155.65572 24.51271,31.86652 100.50212,57.60487 102.95339,17.1589 z" id="path870"/> <g style="stroke-width:1.47160387" transform="matrix(0.42976711,-0.52407551,0.52180739,0.43813377,1.0684692,482.74962)" id="g146"> <path id="path140" d="m 713.41618,146.0295 c -29.75673,-10.93903 -111.29879,93.68473 -105.70609,123.43457 5.59271,29.74985 47.31233,66.34148 81.45924,44.11761 34.14691,-22.22387 50.24122,-157.99626 24.24685,-167.55218 z" style="opacity:1;vector-effect:none;fill:#7c6400;fill-opacity:1;stroke:#000000;stroke-width:14.71603966;stroke-linecap:round;stroke-linejoin:round;stroke-miterlimit:4;stroke-dasharray:none;stroke-dashoffset:0;stroke-opacity:1;paint-order:fill markers stroke"/> <path id="path142" d="m 698.52413,161.21312 c 0,0 -38.99949,26.86631 -60.66587,65.8658 -21.66638,38.99949 5.19993,67.59911 30.33293,56.33259 25.13301,-11.26652 46.79939,-132.59825 30.33294,-122.19839 z" style="opacity:1;vector-effect:none;fill:#ccae00;fill-opacity:1;stroke:none;stroke-width:14.71603966;stroke-linecap:round;stroke-linejoin:round;stroke-miterlimit:4;stroke-dasharray:none;stroke-dashoffset:0;stroke-opacity:1;paint-order:fill markers stroke"/> <path id="path144" d="m 695.05751,170.74633 c 0,0 -36.39952,25.99966 -41.59945,44.19942 -5.19994,18.19976 16.46645,13.86648 25.99965,-1.73331 9.53321,-15.5998 26.86632,-49.39935 15.5998,-42.46611 z" style="opacity:1;vector-effect:none;fill:#ffef2e;fill-opacity:1;stroke:none;stroke-width:14.71603966;stroke-linecap:round;stroke-linejoin:round;stroke-miterlimit:4;stroke-dasharray:none;stroke-dashoffset:0;stroke-opacity:1;paint-order:fill markers stroke"/> </g> <path style="fill:#7c6400;fill-opacity:1;stroke:#000000;stroke-width:10;stroke-linecap:round;stroke-linejoin:round;stroke-miterlimit:4;stroke-dasharray:none;stroke-dashoffset:0;paint-order:fill markers stroke" d="m 381.1875,486.34961 c -17.31659,0.59576 -28.58707,14.55247 -29.42969,40.67383 -1.22564,37.99471 11.03066,57.60556 98.05078,127.46679 87.02013,69.86123 210.80989,68.63474 251.25586,45.34766 25.14667,-14.47838 47.56688,-67.62066 52.47379,-113.52621 1.73642,-16.24471 1.4773,-40.92113 0.22738,-71.5441 -4.33618,8.13034 -11.09085,14.13679 -22.06054,7.35351 -39.22034,-22.06144 -73.53867,9.8042 -155.65625,22.06055 -82.11759,12.25636 -167.91211,-50.25 -167.91211,-50.25 -9.95829,-5.36215 -19.07804,-7.85283 -26.94922,-7.58203 z" id="path13"/> <ellipse style="fill:#7c6400;fill-opacity:1;stroke:#000000;stroke-width:10;stroke-linecap:round;stroke-linejoin:round;stroke-miterlimit:4;stroke-dasharray:none;stroke-dashoffset:0;paint-order:fill markers stroke" id="path820" cx="335.21133" cy="507.41315" rx="56.992054" ry="68.63559"/> <path style="fill:#ccae00;fill-opacity:1;stroke:none;stroke-width:10;stroke-linecap:round;stroke-linejoin:round;stroke-miterlimit:4;stroke-dasharray:none;stroke-dashoffset:0;paint-order:fill markers stroke" d="m 336.26223,453.27594 c 0,0 -21.66638,-3.46662 -35.53286,19.06642 -13.86649,22.53304 -6.93324,45.06607 -3.46662,54.59928 3.46662,9.53321 24.26634,-21.66638 34.66621,-4.33328 10.39986,17.33311 25.99965,26.86632 37.26617,6.93325 11.26652,-19.93307 3.46662,-71.06573 -32.9329,-76.26567 z" id="path825"/> <path style="fill:#ffef2e;fill-opacity:1;stroke:none;stroke-width:10;stroke-linecap:round;stroke-linejoin:round;stroke-miterlimit:4;stroke-dasharray:none;stroke-dashoffset:0;paint-order:fill markers stroke" d="m 328.46234,461.9425 c 0,0 -19.93307,1.73331 -24.26635,22.53303 -4.33328,20.79973 14.73314,-5.19993 27.73297,7.7999 12.99983,12.99983 23.39969,14.73314 26.86631,3.46662 3.46662,-11.26652 -6.93324,-38.99948 -30.33293,-33.79955 z" id="path827"/> <path style="fill:#ccae00;fill-opacity:1;stroke:none;stroke-width:10;stroke-linecap:round;stroke-linejoin:round;stroke-miterlimit:4;stroke-dasharray:none;stroke-dashoffset:0;paint-order:fill markers stroke" d="m 409.06127,511.34185 c 0,0 -8.66655,7.79989 -7.79989,19.06641 0.86665,11.26652 -5.19994,21.66638 -6.93325,35.53287 -1.73331,13.86648 43.33277,58.93255 84.06556,85.79886 40.7328,26.86632 107.46525,49.39935 163.79784,41.59946 56.33259,-7.7999 80.59894,-29.46628 90.13215,-62.39918 9.53321,-32.9329 12.13317,-77.13232 2.59996,-85.79887 -9.5332,-8.66655 -26.86631,-20.79973 -52.86597,-11.26652 -25.99965,9.53321 -102.65111,35.52435 -166.3978,21.66638 -59.79922,-12.99983 -106.5986,-44.19941 -106.5986,-44.19941 z" id="path829"/> <path style="fill:#ffef2e;fill-opacity:1;stroke:none;stroke-width:10;stroke-linecap:round;stroke-linejoin:round;stroke-miterlimit:4;stroke-dasharray:none;stroke-dashoffset:0;paint-order:fill markers stroke" d="m 411.66124,520.0084 c 0,0 40.7328,28.59962 92.73211,40.73279 51.99931,12.13318 93.59877,8.66656 122.19839,0.86666 28.59962,-7.7999 60.66587,-23.39969 77.13232,-18.19976 16.46644,5.19993 20.79972,19.06642 20.79972,34.66621 0,15.59979 -10.39986,83.1989 -25.99966,84.93221 -15.59979,1.73331 5.19994,-64.99914 -14.73314,-74.53235 -19.93307,-9.53321 -31.19958,6.93324 -91.86545,3.46662 -60.66587,-3.46662 -122.19839,-26.86631 -147.33139,-39.86614 -25.133,-12.99983 -38.99949,-30.33293 -32.9329,-32.06624 z" id="path831"/> <path style="fill:#7c6400;fill-opacity:1;stroke:#000000;stroke-width:10;stroke-linecap:round;stroke-linejoin:round;stroke-miterlimit:4;stroke-dasharray:none;stroke-dashoffset:0;paint-order:fill markers stroke" d="m 318.92913,440.27613 c 0,0 4.33327,11.26651 25.133,6.06658 20.79973,-5.19993 6.06659,-45.93272 -8.66655,-107.46525 -14.73314,-61.53252 -90.9988,-142.13146 -160.33122,-169.86442 -69.33242,-27.73297 -84.932215,7.79989 -58.0659,35.53286 26.86631,27.73297 39.86614,31.19959 39.86614,31.19959 0,0 -38.13283,-3.46662 -36.39952,22.53304 1.73331,25.99966 45.06608,32.06624 59.79921,38.99948 -25.133,1.73331 -37.82177,12.16852 -30.33293,31.19959 9.95279,25.29263 53.20474,24.87776 65.8658,24.26635 0,0 -40.7328,14.73314 -25.99967,35.53286 14.73314,20.79973 63.26584,17.33311 63.26584,17.33311 0,0 -18.19976,12.99982 -3.46663,32.06624 14.73314,19.06641 69.33243,2.59997 69.33243,2.59997 z" id="path833"/> <path style="fill:#ccae00;fill-opacity:1;stroke:none;stroke-width:10;stroke-linecap:round;stroke-linejoin:round;stroke-miterlimit:4;stroke-dasharray:none;stroke-dashoffset:0;paint-order:fill markers stroke" d="m 156.8646,178.54623 c 0,0 -32.9329,-11.26651 -36.39952,-0.86665 -3.46662,10.39986 24.26635,19.06641 49.39935,29.46628 25.133,10.39986 97.06538,49.39935 126.53166,108.3319 29.46628,58.93256 25.99966,111.79853 38.13283,112.66518 12.13318,0.86666 -4.33327,-66.73245 -14.73314,-97.06538 C 309.39592,300.74462 255.6633,213.21244 156.8646,178.54623 Z" id="path850"/> <path style="fill:#ffef2e;fill-opacity:1;stroke:none;stroke-width:10;stroke-linecap:round;stroke-linejoin:round;stroke-miterlimit:4;stroke-dasharray:none;stroke-dashoffset:0;paint-order:fill markers stroke" d="m 175.49769,191.97939 c -19.46969,-8.34415 -36.83285,-17.76643 -42.89944,-11.69985 -6.06658,6.06659 33.1565,17.74619 49.83267,26.43299 31.45529,16.38542 47.23272,31.19959 51.56599,26.86631 4.33328,-4.33327 -25.13299,-27.29964 -58.49922,-41.59945 z" id="path852"/> <path style="fill:#ccae00;fill-opacity:1;stroke:none;stroke-width:10;stroke-linecap:round;stroke-linejoin:round;stroke-miterlimit:4;stroke-dasharray:none;stroke-dashoffset:0;paint-order:fill markers stroke" d="m 257.39661,298.14466 c 0,0 -39.43282,-41.16613 -76.26566,-47.66604 -36.83285,-6.49992 -44.19942,2.59996 -35.9662,14.29981 8.23323,11.69985 44.63275,19.49974 66.73246,26.86631 22.09971,7.36657 61.96585,29.46628 45.4994,6.49992 z" id="path854"/> <path style="fill:#ccae00;fill-opacity:1;stroke:none;stroke-width:10;stroke-linecap:round;stroke-linejoin:round;stroke-miterlimit:4;stroke-dasharray:none;stroke-dashoffset:0;paint-order:fill markers stroke" d="m 288.5962,343.21073 c -0.86666,-1.73331 -38.13284,-27.29964 -68.03244,-31.63292 -29.89961,-4.33327 -52.86597,-3.03329 -51.56599,9.09988 1.29998,12.13318 19.49974,15.16647 42.03278,18.19976 22.53304,3.0333 46.79938,6.06659 63.69916,12.13318 16.89978,6.06658 22.53304,-1.73331 13.86649,-7.7999 z" id="path856"/> <path style="fill:#ccae00;fill-opacity:1;stroke:none;stroke-width:10;stroke-linecap:round;stroke-linejoin:round;stroke-miterlimit:4;stroke-dasharray:none;stroke-dashoffset:0;paint-order:fill markers stroke" d="m 308.09594,387.84347 c 0,0 -28.1663,-21.23305 -56.33259,-24.26634 -28.1663,-3.0333 -42.46611,2.16664 -40.7328,12.5665 1.73331,10.39986 18.19976,5.19993 45.06607,9.53321 26.86632,4.33327 40.7328,6.49991 48.09937,9.96653 7.36657,3.46662 9.09988,-2.59996 3.89995,-7.7999 z" id="path858"/> <path style="fill:#ccae00;fill-opacity:1;stroke:none;stroke-width:10;stroke-linecap:round;stroke-linejoin:round;stroke-miterlimit:4;stroke-dasharray:none;stroke-dashoffset:0;paint-order:fill markers stroke" d="m 312.86254,417.74308 c 0,0 -16.03312,-7.7999 -34.66621,-6.49991 -18.63309,1.29998 -20.79972,9.96653 -16.46645,14.73313 4.33328,4.76661 12.5665,1.29999 27.29964,0.86666 14.73314,-0.43333 37.69951,0.86665 23.83302,-9.09988 z" id="path860"/> <path style="fill:#ffef2e;fill-opacity:1;stroke:none;stroke-width:10;stroke-linecap:round;stroke-linejoin:round;stroke-miterlimit:4;stroke-dasharray:none;stroke-dashoffset:0;paint-order:fill markers stroke" d="m 221.43041,276.04495 c 0,0 -17.76643,-14.73314 -35.53286,-17.76643 -17.76643,-3.0333 -22.53304,-3.89995 -28.1663,-0.86666 -5.63326,3.03329 -3.46662,8.66655 13.86649,12.99983 17.3331,4.33327 38.99948,12.99983 53.29929,18.19976 14.29982,5.19993 5.63326,-7.36657 -3.46662,-12.5665 z" id="path862"/> <path style="fill:#ffef2e;fill-opacity:1;stroke:none;stroke-width:10;stroke-linecap:round;stroke-linejoin:round;stroke-miterlimit:4;stroke-dasharray:none;stroke-dashoffset:0;paint-order:fill markers stroke" d="m 230.96362,320.67769 c 0,0 -25.99966,-8.66655 -43.76609,-5.63326 -17.76643,3.0333 -8.66655,12.13318 5.63326,12.13318 14.29981,0 37.6995,6.06658 48.96602,7.36657 11.26652,1.29998 -0.43333,-10.83319 -10.83319,-13.86649 z" id="path864"/> <path style="fill:#ffef2e;fill-opacity:1;stroke:none;stroke-width:10;stroke-linecap:round;stroke-linejoin:round;stroke-miterlimit:4;stroke-dasharray:none;stroke-dashoffset:0;paint-order:fill markers stroke" d="m 259.56324,371.37702 c 0,0 -28.16629,-6.06658 -35.09953,-1.29998 -6.93324,4.76661 4.33327,6.93324 14.73314,6.93324 10.39986,0 23.83302,3.46662 29.46627,3.46662 5.63326,0 -1.29998,-7.36657 -9.09988,-9.09988 z" id="path866"/> <path style="fill:#ffef2e;fill-opacity:1;stroke:none;stroke-width:10;stroke-linecap:round;stroke-linejoin:round;stroke-miterlimit:4;stroke-dasharray:none;stroke-dashoffset:0;paint-order:fill markers stroke" d="m 285.99623,416.00977 c 0,0 -19.49974,0 -19.93307,4.7666 -0.43333,4.76661 9.09988,0.43333 16.89978,0.43333 7.79989,0 9.5332,-2.59997 3.03329,-5.19993 z" id="path868"/> <path style="fill:#ccae00;fill-opacity:1;stroke:none;stroke-width:10;stroke-linecap:round;stroke-linejoin:round;stroke-miterlimit:4;stroke-dasharray:none;stroke-dashoffset:0;paint-order:fill markers stroke" d="m 448.58263,285.57309 c 0,0 -55.1536,9.80509 -75.98941,50.25106 -20.8358,40.44598 1.22564,73.53814 9.80509,82.11759 8.57944,8.57945 75.9894,12.25635 112.75847,25.73834 36.76907,13.482 172.81462,47.79979 209.58369,28.18962 36.76906,-19.61017 20.8358,-102.95339 2.45127,-117.66101 -18.38454,-14.70763 -39.22034,-2.45128 -60.05615,-8.57945 -20.8358,-6.12818 -77.21504,-96.82522 -198.55296,-60.05615 z" id="path882"/> <path style="fill:#ffef2e;fill-opacity:1;stroke:none;stroke-width:10;stroke-linecap:round;stroke-linejoin:round;stroke-miterlimit:4;stroke-dasharray:none;stroke-dashoffset:0;paint-order:fill markers stroke" d="m 541.73093,296.60381 c 0,0 -61.28178,-12.25635 -106.63029,12.25636 -45.34852,24.51271 -41.67161,60.05614 -19.61017,62.50741 22.06144,2.45128 95.59957,4.90255 134.81991,18.38454 39.22034,13.48199 67.40996,11.03072 68.6356,-11.03072 1.22563,-22.06144 -31.86653,-72.3125 -77.21505,-82.11759 z" id="path884"/> <path style="fill:#8d1924;fill-opacity:1;stroke:none;stroke-width:10;stroke-linecap:round;stroke-linejoin:round;stroke-miterlimit:4;stroke-dasharray:none;stroke-dashoffset:0;paint-order:fill markers stroke" d="m 608.39198,511.34185 c 0,0 -9.53321,-12.13318 -45.06607,-18.19976 -35.53287,-6.06659 -67.59911,-12.13318 -70.19908,-3.46663 -2.59996,8.66656 19.93307,38.99949 64.13249,40.7328 44.19942,1.73331 49.39935,-12.13317 51.13266,-19.06641 z" id="path886"/> <path style="fill:#ca2333;fill-opacity:1;stroke:none;stroke-width:10;stroke-linecap:round;stroke-linejoin:round;stroke-miterlimit:4;stroke-dasharray:none;stroke-dashoffset:0;paint-order:fill markers stroke" d="m 517.39318,490.54212 c 0,0 -15.16647,-1.73331 -13.43316,3.89995 1.73331,5.63326 16.03312,22.53303 39.86614,27.73297 23.83302,5.19993 45.4994,-1.73331 49.83268,-5.63326 4.33328,-3.89995 -5.63326,-14.73314 -20.3664,-18.19976 -14.73314,-3.46662 -55.89926,-7.7999 -55.89926,-7.7999 z" id="path888"/> <path style="fill:#e7727d;fill-opacity:1;stroke:none;stroke-width:10;stroke-linecap:round;stroke-linejoin:round;stroke-miterlimit:4;stroke-dasharray:none;stroke-dashoffset:0;paint-order:fill markers stroke" d="m 526.92639,496.17538 c 0,0 -9.96654,-4.33328 -9.53321,0.86665 0.43333,5.19994 10.83319,6.06659 12.99983,4.76661 2.16664,-1.29998 1.73331,-4.33328 -3.46662,-5.63326 z" id="path890"/> <path style="fill:#e7727d;fill-opacity:1;stroke:none;stroke-width:10;stroke-linecap:round;stroke-linejoin:round;stroke-miterlimit:4;stroke-dasharray:none;stroke-dashoffset:0;paint-order:fill markers stroke" d="m 574.59242,506.57524 c 0,0 -6.93324,-2.59996 -6.06658,1.29998 0.86665,3.89995 10.83319,4.76661 6.06658,-1.29998 z" id="path892"/> <path style="display:inline;opacity:1;fill:#8d1924;fill-opacity:1;stroke:none;stroke-width:22.67716599;stroke-linecap:round;stroke-linejoin:round;paint-order:fill markers stroke" d="m 734.15573,491.47987 c 0,0 -24.51272,9.19226 -18.99736,13.48199 5.51536,4.28972 22.67426,12.86917 28.18962,4.90254 5.51536,-7.96663 2.45127,-25.73835 -9.19226,-18.38453 z" id="path84"/> <path style="opacity:1;fill:#ca2333;fill-opacity:1;stroke:none;stroke-width:22.67716599;stroke-linecap:round;stroke-linejoin:round;paint-order:fill markers stroke" d="m 735.99418,494.54396 c 0,0 -15.93326,4.28972 -12.25636,7.96663 3.67691,3.6769 11.64354,6.74099 15.32045,3.06409 3.67691,-3.67691 1.83845,-13.48199 -3.06409,-11.03072 z" id="path101"/> <path style="opacity:1;fill:#e7727d;fill-opacity:1;stroke:none;stroke-width:22.67716599;stroke-linecap:round;stroke-linejoin:round;paint-order:fill markers stroke" d="m 731.09164,495.76959 c 0,0 -7.35382,3.06409 -2.45127,6.12818 4.90254,3.06409 8.57945,-7.96663 2.45127,-6.12818 z" id="path103"/> <g id="g130"> <path id="path121" d="m 713.41618,146.0295 c -29.75673,-10.93903 -111.29879,93.68473 -105.70609,123.43457 5.59271,29.74985 47.31233,66.34148 81.45924,44.11761 34.14691,-22.22387 50.24122,-157.99626 24.24685,-167.55218 z" style="opacity:1;vector-effect:none;fill:#7c6400;fill-opacity:1;stroke:#000000;stroke-width:10;stroke-linecap:round;stroke-linejoin:round;stroke-miterlimit:4;stroke-dasharray:none;stroke-dashoffset:0;stroke-opacity:1;paint-order:fill markers stroke"/> <path id="path123" d="m 698.52413,161.21312 c 0,0 -38.99949,26.86631 -60.66587,65.8658 -21.66638,38.99949 5.19993,67.59911 30.33293,56.33259 25.13301,-11.26652 46.79939,-132.59825 30.33294,-122.19839 z" style="opacity:1;vector-effect:none;fill:#ccae00;fill-opacity:1;stroke:none;stroke-width:10;stroke-linecap:round;stroke-linejoin:round;stroke-miterlimit:4;stroke-dasharray:none;stroke-dashoffset:0;stroke-opacity:1;paint-order:fill markers stroke"/> <path id="path125" d="m 695.05751,170.74633 c 0,0 -36.39952,25.99966 -41.59945,44.19942 -5.19994,18.19976 16.46645,13.86648 25.99965,-1.73331 9.53321,-15.5998 26.86632,-49.39935 15.5998,-42.46611 z" style="opacity:1;vector-effect:none;fill:#ffef2e;fill-opacity:1;stroke:none;stroke-width:10;stroke-linecap:round;stroke-linejoin:round;stroke-miterlimit:4;stroke-dasharray:none;stroke-dashoffset:0;stroke-opacity:1;paint-order:fill markers stroke"/> </g> <g id="g138" transform="matrix(0.72446065,-0.34107925,0.33785428,0.73137596,-29.275437,259.10834)" style="stroke-width:1.24506044"> <path style="opacity:1;vector-effect:none;fill:#7c6400;fill-opacity:1;stroke:#000000;stroke-width:12.45060539;stroke-linecap:round;stroke-linejoin:round;stroke-miterlimit:4;stroke-dasharray:none;stroke-dashoffset:0;stroke-opacity:1;paint-order:fill markers stroke" d="m 713.41618,146.0295 c -29.75673,-10.93903 -111.29879,93.68473 -105.70609,123.43457 5.59271,29.74985 47.31233,66.34148 81.45924,44.11761 34.14691,-22.22387 50.24122,-157.99626 24.24685,-167.55218 z" id="path132"/> <path style="opacity:1;vector-effect:none;fill:#ccae00;fill-opacity:1;stroke:none;stroke-width:12.45060539;stroke-linecap:round;stroke-linejoin:round;stroke-miterlimit:4;stroke-dasharray:none;stroke-dashoffset:0;stroke-opacity:1;paint-order:fill markers stroke" d="m 698.52413,161.21312 c 0,0 -38.99949,26.86631 -60.66587,65.8658 -21.66638,38.99949 5.19993,67.59911 30.33293,56.33259 25.13301,-11.26652 46.79939,-132.59825 30.33294,-122.19839 z" id="path134"/> <path style="opacity:1;vector-effect:none;fill:#ffef2e;fill-opacity:1;stroke:none;stroke-width:12.45060539;stroke-linecap:round;stroke-linejoin:round;stroke-miterlimit:4;stroke-dasharray:none;stroke-dashoffset:0;stroke-opacity:1;paint-order:fill markers stroke" d="m 695.05751,170.74633 c 0,0 -36.39952,25.99966 -41.59945,44.19942 -5.19994,18.19976 16.46645,13.86648 25.99965,-1.73331 9.53321,-15.5998 26.86632,-49.39935 15.5998,-42.46611 z" id="path136"/> </g> <path style="opacity:1;vector-effect:none;fill:#ffffff;fill-opacity:1;stroke:none;stroke-width:10;stroke-linecap:round;stroke-linejoin:round;stroke-miterlimit:4;stroke-dasharray:none;stroke-dashoffset:0;stroke-opacity:1;paint-order:fill markers stroke" d="m 534.07714,309.01568 c 0,0 -56.37923,-9.80509 -83.34322,7.35381 -26.96398,17.1589 11.03072,20.83581 45.34852,20.83581 34.3178,0 60.05615,6.12817 64.95869,-2.45127 4.90254,-8.57945 -8.57945,-24.51272 -26.96399,-25.73835 z" id="path277"/> <path style="opacity:1;vector-effect:none;fill:#ffffff;fill-opacity:1;stroke:none;stroke-width:10;stroke-linecap:round;stroke-linejoin:round;stroke-miterlimit:4;stroke-dasharray:none;stroke-dashoffset:0;stroke-opacity:1;paint-order:fill markers stroke" d="m 693.40977,552.9172 c 0,0 -28.18962,0 -23.28707,13.482 4.90254,13.4819 26.96398,17.1589 33.09217,7.3538 6.1282,-9.8051 -9.8051,-20.8358 -9.8051,-20.8358 z" id="path279"/> <path style="opacity:1;vector-effect:none;fill:#ffffff;fill-opacity:1;stroke:none;stroke-width:10;stroke-linecap:round;stroke-linejoin:round;stroke-miterlimit:4;stroke-dasharray:none;stroke-dashoffset:0;stroke-opacity:1;paint-order:fill markers stroke" d="m 706.89177,597.04 c 0,0 -13.482,36.7691 -3.6769,35.5435 9.8051,-1.2257 13.482,-37.9947 3.6769,-35.5435 z" id="path281"/> <path style="opacity:1;vector-effect:none;fill:#ffffff;fill-opacity:1;stroke:none;stroke-width:10;stroke-linecap:round;stroke-linejoin:round;stroke-miterlimit:4;stroke-dasharray:none;stroke-dashoffset:0;stroke-opacity:1;paint-order:fill markers stroke" d="m 586.77948,576.2042 c 0,0 -15.93327,3.6769 0,7.3539 15.93326,3.6769 12.25635,-9.8051 0,-7.3539 z" id="path283"/> <path style="opacity:1;vector-effect:none;fill:#ffef2e;fill-opacity:1;stroke:none;stroke-width:10;stroke-linecap:round;stroke-linejoin:round;stroke-miterlimit:4;stroke-dasharray:none;stroke-dashoffset:0;stroke-opacity:1;paint-order:fill markers stroke" d="m 527.94897,599.49134 c 27.69226,8.58767 52.6757,11.03067 80.89194,11.03066 31.89009,-2e-5 66.18433,-12.25627 67.40996,15.93333 1.22564,28.1896 -13.48199,57.60481 -75.9894,55.15357 -37.98528,-1.4896 -91.92267,-22.0614 -125.01483,-52.7023 -33.09217,-30.6409 -33.09217,-61.2818 -20.83581,-56.3793 12.25636,4.9026 48.60113,19.23079 73.53814,26.96404 z" id="path285"/> <path style="opacity:1;vector-effect:none;fill:#ffef2e;fill-opacity:1;stroke:none;stroke-width:10;stroke-linecap:round;stroke-linejoin:round;stroke-miterlimit:4;stroke-dasharray:none;stroke-dashoffset:0;stroke-opacity:1;paint-order:fill markers stroke" d="m 695.86104,362.94364 c 0,0 -37.9947,-9.80508 -47.79978,7.35382 -9.80509,17.1589 -11.03073,36.76907 -30.64089,39.22034 -19.61017,2.45127 -25.73835,7.35381 -25.73835,20.8358 0,13.48199 26.96398,22.06144 40.44597,11.03072 13.48199,-11.03072 23.28708,-20.8358 25.73835,-8.57945 2.45127,12.25636 -31.86653,19.61017 -20.83581,26.96399 11.03073,7.35381 50.25106,18.38453 68.63564,-4.90255 18.3845,-23.28707 11.0307,-90.69703 -9.80513,-91.92267 z" id="path287"/> <path style="opacity:1;vector-effect:none;fill:#ffffff;fill-opacity:1;stroke:none;stroke-width:10;stroke-linecap:round;stroke-linejoin:round;stroke-miterlimit:4;stroke-dasharray:none;stroke-dashoffset:0;stroke-opacity:1;paint-order:fill markers stroke" d="m 687.25758,376.1435 c 0,0 -25.133,-4.33327 -28.59962,8.66655 -3.46662,12.99983 19.93307,17.33311 26.86631,12.13318 6.93325,-5.19993 12.13318,-20.79973 1.73331,-20.79973 z" id="path291"/> <path style="opacity:1;vector-effect:none;fill:#ffffff;fill-opacity:1;stroke:none;stroke-width:10;stroke-linecap:round;stroke-linejoin:round;stroke-miterlimit:4;stroke-dasharray:none;stroke-dashoffset:0;stroke-opacity:1;paint-order:fill markers stroke" d="m 696.79079,406.47644 c 0,0 -14.73314,4.33327 -11.26652,11.26651 3.46663,6.93325 23.3997,-12.13317 11.26652,-11.26651 z" id="path293"/> </g> <g id="layer3" transform="translate(298.12943,465.3786)"> <path style="opacity:1;vector-effect:none;fill:#7c6400;fill-opacity:1;stroke:#000000;stroke-width:10;stroke-linecap:round;stroke-linejoin:round;stroke-miterlimit:4;stroke-dasharray:none;stroke-dashoffset:0;stroke-opacity:1;paint-order:fill markers stroke" d="m 578.5,976.83157 c 0,0 17.1589,18.38453 4.90255,35.54343 -12.25636,17.1589 -25.73835,34.3178 -35.54344,41.6716 -9.80508,7.3538 -20.8358,-4.9025 -22.06144,-20.8358 -1.22563,-15.9333 7.35382,-40.44597 7.35382,-40.44597 0,0 18.38453,-26.96398 45.34851,-15.93326 z" id="path156"/> <path style="fill:#ccae00;fill-opacity:1;stroke:#000000;stroke-width:10;stroke-linecap:round;stroke-linejoin:round;stroke-miterlimit:4;stroke-dasharray:none;stroke-dashoffset:0;paint-order:fill markers stroke" d="m 408.13665,703.51483 c 0,0 -6.12817,-85.79449 -66.18432,-100.50212 -60.05614,-14.70763 -143.39936,0 -171.58898,-8.57945 -28.18962,-8.57945 -15.93327,63.73305 2.45127,94.37394 18.38453,30.64089 36.76907,42.89725 55.1536,49.02543 18.38453,6.12817 181.39407,7.35381 180.16843,-34.3178 z" id="path924"/> <path style="fill:#7c6400;fill-opacity:1;stroke:none;stroke-width:10;stroke-linecap:round;stroke-linejoin:round;stroke-miterlimit:4;stroke-dasharray:none;stroke-dashoffset:0;paint-order:fill markers stroke" d="m 235.93485,731.09163 c -2.45127,-1.22563 -36.15625,-12.86917 -51.47669,-54.54078 -15.32045,-41.67161 -12.25636,-57.60488 -4.28973,-52.08952 7.96663,5.51536 66.18432,48.41261 97.43803,55.76642 31.25371,7.35382 112.14566,3.67691 118.27384,12.25636 6.12818,8.57945 -54.54079,60.66896 -159.94545,38.60752 z" id="path928"/> <path style="fill:#ccae00;fill-opacity:1;stroke:#000000;stroke-width:10;stroke-linecap:round;stroke-linejoin:round;stroke-miterlimit:4;stroke-dasharray:none;stroke-dashoffset:0;paint-order:fill markers stroke" d="m 221.84004,798.50159 c 0,-3.06409 -0.61282,-63.12023 8.57945,-79.66632 9.19227,-16.54608 45.34852,-30.02807 78.44068,-11.64353 33.09216,18.38453 26.35117,64.95868 26.35117,64.95868 0,0 -108.46875,71.08687 -113.3713,26.35117 z" id="path926"/> <path style="fill:#ffef2e;fill-opacity:1;stroke:none;stroke-width:10;stroke-linecap:round;stroke-linejoin:round;stroke-miterlimit:4;stroke-dasharray:none;stroke-dashoffset:0;paint-order:fill markers stroke" d="m 212.03496,607.30244 c 0,0 94.98676,-12.25636 139.72246,12.25635 17.15889,12.86918 20.22298,16.54608 20.22298,20.83581 0,4.28972 -18.38453,-6.12818 -39.22034,-7.35382 -20.8358,-1.22563 -87.02012,-9.19226 -93.1483,-5.51536 -6.12818,3.67691 5.51536,9.19227 12.25635,15.93327 6.741,6.74099 36.15625,22.67425 59.44333,25.12553 23.28708,2.45127 59.44333,11.64353 59.44333,11.64353 0,0 -55.76642,-4.90254 -64.95869,-6.12817 -9.19227,-1.22564 -45.96133,-10.41791 -71.69968,-28.80244 -25.73835,-18.38453 -50.25106,-37.38189 -60.66896,-38.60752 15.32044,-1.22564 25.12553,1.83845 38.60752,0.61282 z" id="path930"/> <path style="fill:#ffffff;fill-opacity:1;stroke:none;stroke-width:10;stroke-linecap:round;stroke-linejoin:round;stroke-miterlimit:4;stroke-dasharray:none;stroke-dashoffset:0;paint-order:fill markers stroke" d="m 222.45286,610.97934 c 0,0 69.24841,-8.57945 95.59958,3.06409 26.35116,11.64354 -15.93327,5.51536 -28.80244,4.28973 -12.86917,-1.22564 -42.89725,0 -53.31515,0.61281 -10.4179,0.61282 -22.67426,-5.51536 -13.48199,-7.96663 z" id="path932"/> <path style="opacity:1;vector-effect:none;fill:#b79b00;fill-opacity:1;stroke:#000000;stroke-width:10;stroke-linecap:round;stroke-linejoin:round;stroke-miterlimit:4;stroke-dasharray:none;stroke-dashoffset:0;stroke-opacity:1;paint-order:fill markers stroke" d="m 526.72333,916.3181 c 0,0 31.25371,12.8692 42.28443,31.8665 11.03072,18.9974 -3.06409,49.0255 -15.32045,64.9587 -12.25635,15.9333 -46.57415,46.5742 -65.5715,47.7998 -18.99735,1.2257 -52.70233,-30.6409 -52.70233,-30.6409 0,0 0,-112.7584 91.30985,-113.9841 z" id="path327"/> <path style="opacity:1;vector-effect:none;fill:#ffef2e;fill-opacity:1;stroke:none;stroke-width:10;stroke-linecap:round;stroke-linejoin:round;stroke-miterlimit:4;stroke-dasharray:none;stroke-dashoffset:0;stroke-opacity:1;paint-order:fill markers stroke" d="m 551.84886,948.1846 c 0,0 -4.28972,-0.6128 -11.64354,11.6436 -7.35381,12.2563 -17.77171,40.446 -31.86652,55.1536 -14.09481,14.7076 -2.45127,25.7383 17.1589,10.4179 19.61017,-15.3205 33.70497,-47.7998 34.31779,-55.7664 0.61282,-7.9667 2.45127,-23.8999 -7.96663,-21.4487 z" id="path329"/> </g> <g id="layer2" style="display:inline" transform="translate(298.12943,465.3786)"> <ellipse style="fill:#7c6400;fill-opacity:1;stroke:#000000;stroke-width:10;stroke-linecap:round;stroke-linejoin:round;stroke-miterlimit:4;stroke-dasharray:none;stroke-dashoffset:0;paint-order:fill markers stroke" id="path897" cx="368.32849" cy="877.07031" rx="177.66432" ry="182.86426"/> <ellipse ry="160.8278" rx="156.2449" cy="872.73706" cx="362.2619" id="ellipse899" style="fill:#ccae00;fill-opacity:1;stroke:none;stroke-width:10;stroke-linecap:round;stroke-linejoin:round;stroke-miterlimit:4;stroke-dasharray:none;stroke-dashoffset:0;paint-order:fill markers stroke"/> <path style="fill:#ffef2e;fill-opacity:1;stroke:none;stroke-width:10;stroke-linecap:round;stroke-linejoin:round;stroke-miterlimit:4;stroke-dasharray:none;stroke-dashoffset:0;paint-order:fill markers stroke" d="m 302.46268,809.47125 c 0,0 10.39986,13.86648 19.06641,9.53321 8.66656,-4.33328 27.73297,-8.66656 38.13283,-7.7999 10.39987,0.86665 22.53304,-24.26635 40.7328,-34.66621 -17.3331,22.53304 -25.133,29.46628 -23.39969,36.39952 1.73331,6.93324 12.13317,7.7999 16.46645,13.86648 4.33328,6.06659 7.7999,19.06642 13.86648,25.13301 6.06659,6.06658 34.66621,-1.73332 49.39935,0.86665 -32.06624,6.93324 -46.79938,4.33328 -46.79938,11.26652 0,6.93324 -2.59997,23.39969 -6.06659,31.19959 -3.46662,7.79989 -7.7999,12.13317 4.33328,21.66638 -12.99983,-3.46662 -13.86649,-8.66655 -19.93307,-2.59997 -6.06659,6.06659 -25.133,13.86649 -32.9329,13.86649 -7.7999,0 -16.46645,-5.19993 -19.06642,1.73331 -2.59996,6.93324 -12.99983,32.06624 -12.99983,58.0659 -5.19993,-32.06625 7.7999,-58.0659 4.33328,-62.39918 -3.46662,-4.33328 -6.93324,-1.73331 -10.39986,-6.06659 -3.46662,-4.33327 -8.66655,-15.59979 -14.73314,-20.79972 -6.06659,-5.19993 -42.46611,6.93324 -56.33259,16.46645 25.99966,-20.79973 45.93273,-19.93307 47.66604,-23.39969 1.73331,-3.46662 3.46662,-4.33328 1.73331,-10.39987 -1.73331,-6.06658 -0.86666,-29.46627 -0.86666,-29.46627 0,0 6.06659,-15.5998 8.66655,-22.53304 2.59997,-6.93324 1.73332,-8.66655 -0.86665,-19.93307 z" id="path915"/> <ellipse style="fill:#ffef2e;fill-opacity:1;stroke:none;stroke-width:10.00000095;stroke-linecap:round;stroke-linejoin:round;stroke-miterlimit:4;stroke-dasharray:none;stroke-dashoffset:0;paint-order:fill markers stroke" id="ellipse913" cx="352.7287" cy="869.27045" rx="52.906174" ry="54.457989"/> <ellipse ry="50.889687" rx="49.439552" cy="868.40381" cx="350.99539" id="ellipse905" style="fill:#7c6400;fill-opacity:1;stroke:none;stroke-width:10;stroke-linecap:round;stroke-linejoin:round;stroke-miterlimit:4;stroke-dasharray:none;stroke-dashoffset:0;paint-order:fill markers stroke"/> <ellipse style="fill:#ca2333;fill-opacity:1;stroke:none;stroke-width:10;stroke-linecap:round;stroke-linejoin:round;stroke-miterlimit:4;stroke-dasharray:none;stroke-dashoffset:0;paint-order:fill markers stroke" id="ellipse901" cx="354.46201" cy="868.40381" rx="40.896481" ry="42.096035"/> <ellipse ry="16.096378" rx="15.637701" cy="850.20404" cx="350.99539" id="ellipse903" style="fill:#e7727d;fill-opacity:1;stroke:none;stroke-width:10;stroke-linecap:round;stroke-linejoin:round;stroke-miterlimit:4;stroke-dasharray:none;stroke-dashoffset:0;paint-order:fill markers stroke"/> <path style="fill:#ffef2e;fill-opacity:1;stroke:none;stroke-width:10;stroke-linecap:round;stroke-linejoin:round;stroke-miterlimit:4;stroke-dasharray:none;stroke-dashoffset:0;paint-order:fill markers stroke" d="m 350.99537,722.80572 c 0,0 -38.13283,0.86666 -71.06573,25.99966 -32.9329,25.133 -51.13266,64.99914 -51.13266,83.1989 0,18.19976 22.53304,12.13318 39.86614,-12.99982 17.33311,-25.13301 38.13284,-44.19942 71.93239,-45.93273 33.79955,-1.73331 58.0659,-51.99932 10.39986,-50.26601 z" id="path907"/> <path style="fill:#ffffff;fill-opacity:1;stroke:none;stroke-width:10;stroke-linecap:round;stroke-linejoin:round;stroke-miterlimit:4;stroke-dasharray:none;stroke-dashoffset:0;paint-order:fill markers stroke" d="m 310.26258,738.40552 c 0,0 -34.66621,14.73314 -44.19942,33.79955 -9.53321,19.06642 13.86648,10.39987 31.19959,-2.59996 17.3331,-12.99983 25.99965,-7.7999 38.99948,-19.06642 12.99983,-11.26652 0,-24.26634 -25.99965,-12.13317 z" id="path909"/> <path style="fill:#ffef2e;fill-opacity:1;stroke:none;stroke-width:10;stroke-linecap:round;stroke-linejoin:round;stroke-miterlimit:4;stroke-dasharray:none;stroke-dashoffset:0;paint-order:fill markers stroke" d="m 509.86441,794.21186 c 0,0 -44.7357,11.03072 -58.83051,25.12553 18.99735,-9.19226 56.37924,-20.8358 58.83051,-25.12553 z" id="path917"/> <path style="fill:#ffef2e;fill-opacity:1;stroke:none;stroke-width:10;stroke-linecap:round;stroke-linejoin:round;stroke-miterlimit:4;stroke-dasharray:none;stroke-dashoffset:0;paint-order:fill markers stroke" d="m 270.25265,933.93432 c -3.06409,1.83846 -33.09216,41.67161 -27.5768,58.21769 2.45127,-9.80508 27.5768,-58.21769 27.5768,-58.21769 z" id="path919"/> <path style="fill:#ffef2e;fill-opacity:1;stroke:none;stroke-width:10;stroke-linecap:round;stroke-linejoin:round;stroke-miterlimit:4;stroke-dasharray:none;stroke-dashoffset:0;paint-order:fill markers stroke" d="m 202.22987,851.81674 c 0,0 42.89725,-14.70763 64.95869,-6.741 -23.28708,2.45127 -64.95869,6.741 -64.95869,6.741 z" id="path921"/> <path style="opacity:1;vector-effect:none;fill:#b79b00;fill-opacity:1;stroke:none;stroke-width:10;stroke-linecap:round;stroke-linejoin:round;stroke-miterlimit:4;stroke-dasharray:none;stroke-dashoffset:0;stroke-opacity:1;paint-order:fill markers stroke" d="m 392.5948,923.8696 c 0,0 -8.66655,9.5332 -25.133,11.2665 -16.46645,1.7333 -22.53304,5.2 -26.86631,14.7332 -4.33328,9.5332 -11.26652,62.3992 8.66655,69.3324 19.93307,6.9332 67.59911,-1.7333 83.1989,-15.5998 15.5998,-13.8665 -27.73297,-84.0656 -39.86614,-79.7323 z" id="path313"/> <path style="opacity:1;vector-effect:none;fill:#b79b00;fill-opacity:1;stroke:none;stroke-width:10;stroke-linecap:round;stroke-linejoin:round;stroke-miterlimit:4;stroke-dasharray:none;stroke-dashoffset:0;stroke-opacity:1;paint-order:fill markers stroke" d="m 427.26101,870.137 c 0,0 -15.59979,19.0664 -13.86648,27.733 1.73331,8.6665 12.99983,27.7329 32.06624,36.3995 19.06642,8.6665 37.26618,20.7997 48.5327,1.7333 11.26651,-19.0664 20.79972,-51.1327 0.86665,-60.6659 -19.93307,-9.5332 -61.53252,-10.3998 -67.59911,-5.1999 z" id="path315"/> <path style="opacity:1;vector-effect:none;fill:#b79b00;fill-opacity:1;stroke:none;stroke-width:10;stroke-linecap:round;stroke-linejoin:round;stroke-miterlimit:4;stroke-dasharray:none;stroke-dashoffset:0;stroke-opacity:1;paint-order:fill markers stroke" d="m 492.26015,815.5377 c -5.19993,0.8667 -75.399,18.1998 -74.53235,24.2664 0.86666,6.0665 32.9329,4.3332 51.99932,0.8666 19.06641,-3.4666 31.19959,-5.1999 32.06624,-10.3998 0.86666,-5.2 -9.53321,-14.7332 -9.53321,-14.7332 z" id="path317"/> <path style="opacity:1;vector-effect:none;fill:#b79b00;fill-opacity:1;stroke:none;stroke-width:10;stroke-linecap:round;stroke-linejoin:round;stroke-miterlimit:4;stroke-dasharray:none;stroke-dashoffset:0;stroke-opacity:1;paint-order:fill markers stroke" d="m 450.6607,754.8718 c -3.46662,0 -56.33259,41.5995 -55.46593,51.1327 0.86665,9.5332 10.39986,7.7999 20.79972,4.3333 10.39987,-3.4666 -9.5332,3.4666 -2.59996,10.3998 6.93324,6.9333 24.26634,-10.3998 38.99948,-15.5998 14.73314,-5.1999 31.19959,-7.7998 30.33294,-15.5997 -0.86666,-7.7999 -23.39969,-36.3996 -32.06625,-34.6663 z" id="path319"/> <path style="opacity:1;vector-effect:none;fill:#b79b00;fill-opacity:1;stroke:none;stroke-width:10;stroke-linecap:round;stroke-linejoin:round;stroke-miterlimit:4;stroke-dasharray:none;stroke-dashoffset:0;stroke-opacity:1;paint-order:fill markers stroke" d="m 271.26307,856.2705 c 0,0 -44.19942,1.7333 -51.99932,9.5332 -7.7999,7.7999 -6.06658,44.1994 5.19993,44.1994 11.26652,0 13.86649,-10.3998 26.86632,-12.9998 12.99982,-2.6 28.59962,-6.9332 31.19958,-12.9998 2.59997,-6.0666 -3.46662,-29.4663 -11.26651,-27.733 z" id="path321"/> <path style="opacity:1;vector-effect:none;fill:#b79b00;fill-opacity:1;stroke:none;stroke-width:10;stroke-linecap:round;stroke-linejoin:round;stroke-miterlimit:4;stroke-dasharray:none;stroke-dashoffset:0;stroke-opacity:1;paint-order:fill markers stroke" d="m 299.86269,917.803 c 0,0 -30.33293,38.1329 -33.79955,51.9993 -3.46663,13.8665 -0.86666,19.9331 12.13317,27.733 12.99983,7.7999 25.133,14.7332 29.46628,0.8667 4.33327,-13.8665 12.99983,-55.466 9.5332,-63.2659 -3.46662,-7.7999 -12.13317,-8.6665 -12.13317,-8.6665 0,0 3.46662,-12.1332 -5.19993,-8.6666 z" id="path323"/> <path style="opacity:1;vector-effect:none;fill:#b79b00;fill-opacity:1;stroke:none;stroke-width:10;stroke-linecap:round;stroke-linejoin:round;stroke-miterlimit:4;stroke-dasharray:none;stroke-dashoffset:0;stroke-opacity:1;paint-order:fill markers stroke" d="m 285.99621,907.4032 c -5.19994,0.8666 -45.06608,12.9998 -50.26601,29.4662 -5.19993,16.4665 6.06659,24.2664 10.39986,14.7332 4.33328,-9.5332 12.13318,-22.5331 25.99966,-29.4663 13.86649,-6.9332 15.5998,-12.1332 13.86649,-14.7331 z" id="path325"/> </g> </svg>